800.ufo
<glyph name="quotedbl" format="1">
  <advance width="884"/>
  <unicode hex="0022"/>
  <outline>
    <contour>
      <point x="174" y="876" type="line"/>
      <point x="373" y="876" type="line"/>
      <point x="340" y="1375" type="line"/>
      <point x="81" y="1375" type="line"/>
    </contour>
    <contour>
      <point x="556" y="876" type="line"/>
      <point x="752" y="876" type="line"/>
      <point x="734" y="1375" type="line"/>
      <point x="462" y="1375" type="line"/>
    </contour>
  </outline>
</glyph>
<glyph name="numbersign" format="1">
  <advance width="1105"/>
  <unicode hex="0023"/>
  <outline>
    <contour>
      <point x="160" y="3" type="line"/>
      <point x="340" y="3" type="line"/>
      <point x="417" y="463" type="line"/>
      <point x="588" y="463" type="line"/>
      <point x="509" y="3" type="line"/>
      <point x="692" y="3" type="line"/>
      <point x="772" y="463" type="line"/>
      <point x="926" y="463" type="line"/>
      <point x="943" y="599" type="line"/>
      <point x="796" y="599" type="line"/>
      <point x="856" y="965" type="line"/>
      <point x="1003" y="965" type="line"/>
      <point x="1023" y="1106" type="line"/>
      <point x="880" y="1106" type="line"/>
      <point x="920" y="1393" type="line"/>
      <point x="734" y="1393" type="line"/>
      <point x="697" y="1106" type="line"/>
      <point x="527" y="1106" type="line"/>
      <point x="567" y="1393" type="line"/>
      <point x="385" y="1393" type="line"/>
      <point x="347" y="1106" type="line"/>
      <point x="152" y="1106" type="line"/>
      <point x="133" y="965" type="line"/>
      <point x="324" y="965" type="line"/>
      <point x="262" y="599" type="line"/>
      <point x="93" y="599" type="line"/>
      <point x="73" y="463" type="line"/>
      <point x="238" y="463" type="line"/>
    </contour>
    <contour>
      <point x="444" y="599" type="line"/>
      <point x="504" y="965" type="line"/>
      <point x="672" y="965" type="line"/>
      <point x="610" y="599" type="line"/>
    </contour>
  </outline>
</glyph>
<glyph name="dollar" format="1">
  <advance width="1229"/>
  <unicode hex="0024"/>
  <outline>
    <contour>
      <point x="522" y="1772" type="line"/>
      <point x="526" y="1436" type="line"/>
      <point x="690" y="1436" type="line"/>
      <point x="690" y="1772" type="line"/>
    </contour>
    <contour>
      <point x="537" y="59" type="line"/>
      <point x="537" y="-278" type="line"/>
      <point x="714" y="-278" type="line"/>
      <point x="699" y="59" type="line"/>
    </contour>
    <component base="S"/>
  </outline>
</glyph>
<glyph name="percent" format="1">
  <advance width="2287"/>
  <unicode hex="0025"/>
  <outline>
    <contour>
      <point x="545" y="923" type="curve" smooth="yes"/>
      <point x="433" y="923"/>
      <point x="346" y="1019"/>
      <point x="346" y="1143" type="curve" smooth="yes"/>
      <point x="346" y="1264"/>
      <point x="433" y="1358"/>
      <point x="545" y="1358" type="curve" smooth="yes"/>
      <point x="654" y="1358"/>
      <point x="738" y="1268"/>
      <point x="738" y="1143" type="curve" smooth="yes"/>
      <point x="738" y="1020"/>
      <point x="655" y="923"/>
    </contour>
    <contour>
      <point x="540" y="720" type="curve" smooth="yes"/>
      <point x="791" y="720"/>
      <point x="974" y="904"/>
      <point x="974" y="1138" type="curve" smooth="yes"/>
      <point x="974" y="1375"/>
      <point x="794" y="1553"/>
      <point x="540" y="1553" type="curve" smooth="yes"/>
      <point x="290" y="1553"/>
      <point x="120" y="1372"/>
      <point x="120" y="1138" type="curve" smooth="yes"/>
      <point x="120" y="904"/>
      <point x="286" y="720"/>
    </contour>
    <contour>
      <point x="608" y="0" type="line"/>
      <point x="866" y="0" type="line"/>
      <point x="1716" y="1533" type="line"/>
      <point x="1466" y="1533" type="line"/>
    </contour>
    <contour>
      <point x="1794" y="163" type="curve" smooth="yes"/>
      <point x="1682" y="163"/>
      <point x="1595" y="260"/>
      <point x="1595" y="382" type="curve" smooth="yes"/>
      <point x="1595" y="503"/>
      <point x="1682" y="597"/>
      <point x="1794" y="597" type="curve" smooth="yes"/>
      <point x="1903" y="597"/>
      <point x="1987" y="507"/>
      <point x="1987" y="382" type="curve" smooth="yes"/>
      <point x="1987" y="261"/>
      <point x="1904" y="163"/>
    </contour>
    <contour>
      <point x="1789" y="-41" type="curve" smooth="yes"/>
      <point x="2040" y="-41"/>
      <point x="2223" y="143"/>
      <point x="2223" y="379" type="curve" smooth="yes"/>
      <point x="2223" y="616"/>
      <point x="2043" y="790"/>
      <point x="1789" y="790" type="curve" smooth="yes"/>
      <point x="1539" y="790"/>
      <point x="1357" y="611"/>
      <point x="1357" y="379" type="curve" smooth="yes"/>
      <point x="1357" y="143"/>
      <point x="1535" y="-41"/>
    </contour>
  </outline>
</glyph>
<glyph name="quotesingle" format="1">
  <advance width="655"/>
  <unicode hex="0027"/>
  <outline>
    <contour>
      <point x="245" y="718" type="line"/>
      <point x="409" y="718" type="line"/>
      <point x="458" y="1377" type="line"/>
      <point x="146" y="1377" type="line"/>
    </contour>
  </outline>
</glyph>
<glyph name="asterisk" format="1">
  <advance width="1057"/>
  <unicode hex="002A"/>
  <outline>
    <contour>
      <point x="364" y="465" type="line"/>
      <point x="530" y="798" type="line"/>
      <point x="703" y="463" type="line"/>
      <point x="695" y="459"/>
      <point x="945" y="603"/>
      <point x="937" y="599" type="curve"/>
      <point x="949" y="590"/>
      <point x="740" y="862"/>
      <point x="696" y="920" type="curve"/>
      <point x="1045" y="1001" type="line"/>
      <point x="969" y="1263" type="line"/>
      <point x="629" y="1115" type="line"/>
      <point x="661" y="1527" type="line"/>
      <point x="400" y="1527" type="line"/>
      <point x="434" y="1115" type="line"/>
      <point x="96" y="1263" type="line"/>
      <point x="21" y="1001" type="line"/>
      <point x="366" y="920" type="line"/>
      <point x="124" y="599" type="line"/>
    </contour>
  </outline>
</glyph>
<glyph name="comma" format="1">
  <advance width="685"/>
  <unicode hex="002C"/>
  <outline>
    <contour>
      <point x="154" y="-409" type="curve"/>
      <point x="364" y="-409" type="line"/>
      <point x="364" y="-409"/>
      <point x="517" y="242"/>
      <point x="517" y="270" type="curve"/>
      <point x="528" y="285" type="line"/>
      <point x="260" y="285" type="line"/>
      <point x="260" y="216"/>
      <point x="154" y="-409"/>
    </contour>
  </outline>
</glyph>
<glyph name="hyphen" format="1">
  <advance width="970"/>
  <unicode hex="002D"/>
  <outline>
    <contour>
      <point x="140" y="412" type="line"/>
      <point x="840" y="412" type="line"/>
      <point x="840" y="644" type="line"/>
      <point x="140" y="644" type="line"/>
    </contour>
    <contour>
      <point x="489" y="525" type="move" name="_mid"/>
    </contour>
  </outline>
</glyph>
<glyph name="period" format="1">
  <advance width="744"/>
  <unicode hex="002E"/>
  <outline>
    <contour>
      <point x="354" y="-1" type="curve" smooth="yes"/>
      <point x="451" y="-1"/>
      <point x="522" y="72"/>
      <point x="522" y="184" type="curve" smooth="yes"/>
      <point x="522" y="301"/>
      <point x="451" y="376"/>
      <point x="354" y="376" type="curve" smooth="yes"/>
      <point x="259" y="376"/>
      <point x="187" y="301"/>
      <point x="187" y="184" type="curve" smooth="yes"/>
      <point x="187" y="70"/>
      <point x="261" y="-1"/>
    </contour>
  </outline>
</glyph>
<glyph name="slash" format="1">
  <advance width="1026"/>
  <unicode hex="002F"/>
  <outline>
    <contour>
      <point x="51" y="-187" type="line"/>
      <point x="273" y="-187" type="line"/>
      <point x="930" y="1560" type="line"/>
      <point x="704" y="1560" type="line"/>
    </contour>
  </outline>
</glyph>
<glyph name="zero" format="1">
  <advance width="1390"/>
  <unicode hex="0030"/>
  <outline>
    <contour>
      <point x="695" y="263" type="curve"/>
      <point x="572" y="263"/>
      <point x="495" y="444"/>
      <point x="495" y="731" type="curve"/>
      <point x="499" y="1014"/>
      <point x="576" y="1192"/>
      <point x="695" y="1192" type="curve"/>
      <point x="818" y="1192"/>
      <point x="895" y="1014"/>
      <point x="895" y="731" type="curve"/>
      <point x="895" y="444"/>
      <point x="818" y="263"/>
    </contour>
    <contour>
      <point x="695" y="-20" type="curve"/>
      <point x="1075" y="-20"/>
      <point x="1314" y="270"/>
      <point x="1314" y="731" type="curve"/>
      <point x="1314" y="1189"/>
      <point x="1075" y="1476"/>
      <point x="695" y="1476" type="curve"/>
      <point x="315" y="1476"/>
      <point x="76" y="1189"/>
      <point x="76" y="731" type="curve"/>
      <point x="76" y="270"/>
      <point x="315" y="-20"/>
    </contour>
  </outline>
</glyph>
<glyph name="one" format="1">
  <advance width="1390"/>
  <unicode hex="0031"/>
  <outline>
    <contour>
      <point x="193" y="0" type="line"/>
      <point x="1295" y="0" type="line"/>
      <point x="1295" y="263" type="line"/>
      <point x="921" y="263" type="line"/>
      <point x="971" y="207" type="line"/>
      <point x="971" y="1456" type="line"/>
      <point x="623" y="1456" type="line"/>
      <point x="518" y="1376"/>
      <point x="333" y="1303"/>
      <point x="192" y="1262" type="curve"/>
      <point x="192" y="1013" type="line"/>
      <point x="321" y="1028"/>
      <point x="503" y="1091"/>
      <point x="610" y="1143" type="curve"/>
      <point x="562" y="1164" type="line"/>
      <point x="562" y="193" type="line"/>
      <point x="637" y="263" type="line"/>
      <point x="193" y="263" type="line"/>
    </contour>
  </outline>
</glyph>
<glyph name="two" format="1">
  <advance width="1390"/>
  <unicode hex="0032"/>
  <outline>
    <contour>
      <point x="313" y="1011" type="line"/>
      <point x="402" y="1119"/>
      <point x="542" y="1196"/>
      <point x="677" y="1196" type="curve" smooth="yes"/>
      <point x="785" y="1196"/>
      <point x="857" y="1121"/>
      <point x="856" y="1015" type="curve" smooth="yes"/>
      <point x="856" y="941"/>
      <point x="815" y="865"/>
      <point x="730" y="782" type="curve" smooth="yes"/>
      <point x="188" y="249" type="line"/>
      <point x="248" y="0" type="line"/>
      <point x="1193" y="0" type="line"/>
      <point x="1203" y="259" type="line"/>
      <point x="567" y="259" type="line"/>
      <point x="575" y="204" type="line"/>
      <point x="941" y="549" type="line" smooth="yes"/>
      <point x="1142" y="738"/>
      <point x="1212" y="880"/>
      <point x="1212" y="1009" type="curve" smooth="yes"/>
      <point x="1212" y="1226"/>
      <point x="1095" y="1476"/>
      <point x="680" y="1476" type="curve" smooth="yes"/>
      <point x="414" y="1476"/>
      <point x="221" y="1329"/>
      <point x="111" y="1195" type="curve"/>
      <point x="286" y="1011" type="line"/>
    </contour>
  </outline>
</glyph>
<glyph name="four" format="1">
  <advance width="1390"/>
  <unicode hex="0034"/>
  <outline>
    <contour>
      <point x="691" y="0" type="line"/>
      <point x="1090" y="0" type="line"/>
      <point x="1090" y="320" type="line"/>
      <point x="1295" y="320" type="line"/>
      <point x="1311" y="567" type="line"/>
      <point x="1090" y="567" type="line"/>
      <point x="1090" y="1456" type="line"/>
      <point x="623" y="1456" type="line"/>
      <point x="88" y="545" type="line"/>
      <point x="104" y="320" type="line"/>
      <point x="691" y="320" type="line"/>
    </contour>
    <contour>
      <point x="374" y="561" type="line"/>
      <point x="690" y="1101" type="line"/>
      <point x="690" y="561" type="line"/>
    </contour>
  </outline>
</glyph>
<glyph name="six" format="1">
  <advance width="1390"/>
  <unicode hex="0036"/>
  <outline>
    <contour>
      <point x="689" y="-20" type="curve" smooth="yes"/>
      <point x="1044" y="-20"/>
      <point x="1254" y="169"/>
      <point x="1254" y="448" type="curve" smooth="yes"/>
      <point x="1254" y="771"/>
      <point x="1016" y="899"/>
      <point x="811" y="899" type="curve" smooth="yes"/>
      <point x="696" y="899"/>
      <point x="590" y="839"/>
      <point x="564" y="813" type="curve"/>
      <point x="587" y="784" type="line"/>
      <point x="787" y="1027" type="line"/>
      <point x="1090" y="1424" type="line"/>
      <point x="1090" y="1456" type="line"/>
      <point x="669" y="1456" type="line"/>
      <point x="274" y="883" type="line" smooth="yes"/>
      <point x="186" y="755"/>
      <point x="126" y="639"/>
      <point x="126" y="469" type="curve" smooth="yes"/>
      <point x="126" y="181"/>
      <point x="332" y="-20"/>
    </contour>
    <contour>
      <point x="690" y="239" type="curve" smooth="yes"/>
      <point x="579" y="239"/>
      <point x="509" y="324"/>
      <point x="509" y="460" type="curve" smooth="yes"/>
      <point x="509" y="604"/>
      <point x="579" y="694"/>
      <point x="690" y="694" type="curve" smooth="yes"/>
      <point x="801" y="694"/>
      <point x="871" y="604"/>
      <point x="871" y="460" type="curve" smooth="yes"/>
      <point x="871" y="324"/>
      <point x="801" y="239"/>
    </contour>
  </outline>
</glyph>
<glyph name="eight" format="1">
  <advance width="1390"/>
  <unicode hex="0038"/>
  <outline>
    <contour>
      <point x="700" y="-20" type="curve"/>
      <point x="1055" y="-20"/>
      <point x="1254" y="133"/>
      <point x="1254" y="393" type="curve"/>
      <point x="1254" y="589"/>
      <point x="1171" y="725"/>
      <point x="1029" y="780" type="curve"/>
      <point x="1156" y="831"/>
      <point x="1230" y="937"/>
      <point x="1230" y="1111" type="curve"/>
      <point x="1230" y="1350"/>
      <point x="1003" y="1476"/>
      <point x="697" y="1476" type="curve"/>
      <point x="393" y="1476"/>
      <point x="162" y="1350"/>
      <point x="162" y="1111" type="curve"/>
      <point x="162" y="931"/>
      <point x="244" y="826"/>
      <point x="377" y="780" type="curve"/>
      <point x="228" y="727"/>
      <point x="136" y="584"/>
      <point x="136" y="393" type="curve"/>
      <point x="136" y="133"/>
      <point x="342" y="-20"/>
    </contour>
    <contour>
      <point x="700" y="215" type="curve"/>
      <point x="589" y="215"/>
      <point x="540" y="276"/>
      <point x="540" y="406" type="curve"/>
      <point x="540" y="543"/>
      <point x="604" y="651"/>
      <point x="700" y="685" type="curve"/>
      <point x="795" y="651"/>
      <point x="855" y="543"/>
      <point x="855" y="407" type="curve"/>
      <point x="855" y="276"/>
      <point x="812" y="215"/>
    </contour>
    <contour>
      <point x="700" y="839" type="curve"/>
      <point x="600" y="885"/>
      <point x="536" y="981"/>
      <point x="536" y="1089" type="curve"/>
      <point x="536" y="1186"/>
      <point x="601" y="1246"/>
      <point x="700" y="1246" type="curve"/>
      <point x="798" y="1246"/>
      <point x="857" y="1187"/>
      <point x="857" y="1089" type="curve"/>
      <point x="857" y="982"/>
      <point x="799" y="885"/>
    </contour>
  </outline>
</glyph>
<glyph name="nine" format="1">
  <advance width="1390"/>
  <unicode hex="0039"/>
  <outline>
    <contour>
      <point x="323" y="0" type="line"/>
      <point x="728" y="0" type="line"/>
      <point x="1126" y="573" type="line" smooth="yes"/>
      <point x="1215" y="701"/>
      <point x="1274" y="817"/>
      <point x="1274" y="987" type="curve" smooth="yes"/>
      <point x="1274" y="1275"/>
      <point x="1068" y="1476"/>
      <point x="709" y="1476" type="curve" smooth="yes"/>
      <point x="358" y="1476"/>
      <point x="146" y="1288"/>
      <point x="146" y="1009" type="curve" smooth="yes"/>
      <point x="146" y="686"/>
      <point x="386" y="557"/>
      <point x="587" y="557" type="curve" smooth="yes"/>
      <point x="702" y="557"/>
      <point x="808" y="617"/>
      <point x="834" y="643" type="curve"/>
      <point x="811" y="672" type="line"/>
      <point x="611" y="429" type="line"/>
      <point x="323" y="32" type="line"/>
    </contour>
    <contour>
      <point x="708" y="762" type="curve" smooth="yes"/>
      <point x="597" y="762"/>
      <point x="527" y="852"/>
      <point x="527" y="996" type="curve" smooth="yes"/>
      <point x="527" y="1132"/>
      <point x="597" y="1217"/>
      <point x="708" y="1217" type="curve" smooth="yes"/>
      <point x="819" y="1217"/>
      <point x="889" y="1132"/>
      <point x="889" y="996" type="curve" smooth="yes"/>
      <point x="889" y="852"/>
      <point x="819" y="762"/>
    </contour>
  </outline>
</glyph>
<glyph name="colon" format="1">
  <advance width="712"/>
  <unicode hex="003A"/>
  <outline>
    <contour>
      <point x="364" y="782" type="curve" smooth="yes"/>
      <point x="461" y="782"/>
      <point x="542" y="835"/>
      <point x="542" y="947" type="curve" smooth="yes"/>
      <point x="542" y="1064"/>
      <point x="461" y="1119"/>
      <point x="364" y="1119" type="curve" smooth="yes"/>
      <point x="269" y="1119"/>
      <point x="187" y="1064"/>
      <point x="187" y="947" type="curve" smooth="yes"/>
      <point x="187" y="833"/>
      <point x="271" y="782"/>
    </contour>
    <contour>
      <point x="364" y="-6" type="curve" smooth="yes"/>
      <point x="461" y="-6"/>
      <point x="542" y="47"/>
      <point x="542" y="159" type="curve" smooth="yes"/>
      <point x="542" y="276"/>
      <point x="461" y="331"/>
      <point x="364" y="331" type="curve" smooth="yes"/>
      <point x="269" y="331"/>
      <point x="187" y="276"/>
      <point x="187" y="159" type="curve" smooth="yes"/>
      <point x="187" y="45"/>
      <point x="271" y="-6"/>
    </contour>
  </outline>
</glyph>
<glyph name="semicolon" format="1">
  <advance width="769"/>
  <unicode hex="003B"/>
  <outline>
    <contour>
      <point x="234" y="-357" type="curve"/>
      <point x="415" y="-313" type="line"/>
      <point x="370" y="-373"/>
      <point x="503" y="465"/>
      <point x="503" y="248" type="curve"/>
      <point x="258" y="248" type="line"/>
      <point x="271" y="429"/>
      <point x="187" y="-538"/>
    </contour>
    <contour>
      <point x="385" y="778" type="curve" smooth="yes"/>
      <point x="469" y="778"/>
      <point x="541" y="851"/>
      <point x="541" y="936" type="curve" smooth="yes"/>
      <point x="541" y="1025"/>
      <point x="469" y="1097"/>
      <point x="385" y="1097" type="curve" smooth="yes"/>
      <point x="299" y="1097"/>
      <point x="228" y="1025"/>
      <point x="228" y="936" type="curve" smooth="yes"/>
      <point x="228" y="849"/>
      <point x="300" y="778"/>
    </contour>
  </outline>
</glyph>
<glyph name="less" format="1">
  <advance width="1107"/>
  <unicode hex="003C"/>
  <outline>
    <contour>
      <point x="1000" y="192" type="line"/>
      <point x="1000" y="456" type="line"/>
      <point x="405" y="737" type="line"/>
      <point x="1000" y="1046" type="line"/>
      <point x="1000" y="1299" type="line"/>
      <point x="53" y="802" type="line"/>
      <point x="53" y="658" type="line"/>
    </contour>
  </outline>
</glyph>
<glyph name="equal" format="1">
  <advance width="1289"/>
  <unicode hex="003D"/>
  <outline>
    <contour>
      <point x="91" y="1159" type="line"/>
      <point x="91" y="933" type="line"/>
      <point x="1169" y="933" type="line"/>
      <point x="1169" y="1159" type="line"/>
    </contour>
    <contour>
      <point x="91" y="723" type="line"/>
      <point x="91" y="496" type="line"/>
      <point x="1169" y="496" type="line"/>
      <point x="1169" y="723" type="line"/>
    </contour>
  </outline>
</glyph>
<glyph name="greater" format="1">
  <advance width="1107"/>
  <unicode hex="003E"/>
  <outline>
    <contour>
      <point x="83" y="1046" type="line"/>
      <point x="678" y="737" type="line"/>
      <point x="83" y="456" type="line"/>
      <point x="83" y="192" type="line"/>
      <point x="1030" y="658" type="line"/>
      <point x="1030" y="802" type="line"/>
      <point x="83" y="1299" type="line"/>
    </contour>
  </outline>
</glyph>
<glyph name="question" format="1">
  <advance width="1089"/>
  <unicode hex="003F"/>
  <outline>
    <contour>
      <point x="322" y="513" type="curve"/>
      <point x="398" y="483" type="line"/>
      <point x="605" y="782"/>
      <point x="946" y="820"/>
      <point x="946" y="1212" type="curve" smooth="yes"/>
      <point x="946" y="1429"/>
      <point x="744" y="1560"/>
      <point x="517" y="1560" type="curve" smooth="yes"/>
      <point x="399" y="1560"/>
      <point x="220" y="1520"/>
      <point x="114" y="1414" type="curve"/>
      <point x="204" y="1158" type="line"/>
      <point x="286" y="1203"/>
      <point x="381" y="1230"/>
      <point x="453" y="1230" type="curve" smooth="yes"/>
      <point x="563" y="1230"/>
      <point x="602" y="1165"/>
      <point x="602" y="1093" type="curve" smooth="yes"/>
      <point x="603" y="957"/>
      <point x="458" y="883"/>
    </contour>
    <contour>
      <point x="365" y="-20" type="curve" smooth="yes"/>
      <point x="463" y="-20"/>
      <point x="525" y="44"/>
      <point x="525" y="145" type="curve" smooth="yes"/>
      <point x="525" y="246"/>
      <point x="463" y="309"/>
      <point x="365" y="309" type="curve" smooth="yes"/>
      <point x="263" y="309"/>
      <point x="199" y="246"/>
      <point x="199" y="145" type="curve" smooth="yes"/>
      <point x="199" y="44"/>
      <point x="263" y="-20"/>
    </contour>
  </outline>
</glyph>
<glyph name="at" format="1">
  <advance width="2035"/>
  <unicode hex="0040"/>
  <outline>
    <contour>
      <point x="1012" y="-118" type="curve"/>
      <point x="1227" y="-118"/>
      <point x="1454" y="-68"/>
      <point x="1587" y="36" type="curve"/>
      <point x="1521" y="203" type="line"/>
      <point x="1381" y="124"/>
      <point x="1195" y="92"/>
      <point x="1015" y="92" type="curve"/>
      <point x="638" y="92"/>
      <point x="421" y="365"/>
      <point x="421" y="703" type="curve"/>
      <point x="421" y="1050"/>
      <point x="657" y="1382"/>
      <point x="1074" y="1382" type="curve"/>
      <point x="1483" y="1382"/>
      <point x="1668" y="1120"/>
      <point x="1668" y="856" type="curve"/>
      <point x="1668" y="591"/>
      <point x="1569" y="463"/>
      <point x="1481" y="463" type="curve"/>
      <point x="1434" y="463"/>
      <point x="1404" y="503"/>
      <point x="1404" y="578" type="curve"/>
      <point x="1404" y="707"/>
      <point x="1444" y="906"/>
      <point x="1473" y="1122" type="curve"/>
      <point x="1401" y="1161"/>
      <point x="1244" y="1214"/>
      <point x="1089" y="1214" type="curve"/>
      <point x="765" y="1214"/>
      <point x="581" y="932"/>
      <point x="581" y="664" type="curve"/>
      <point x="581" y="450"/>
      <point x="690" y="272"/>
      <point x="946" y="272" type="curve"/>
      <point x="1096" y="272"/>
      <point x="1213" y="390"/>
      <point x="1253" y="570" type="curve"/>
      <point x="1227" y="570" type="line"/>
      <point x="1241" y="388"/>
      <point x="1331" y="283"/>
      <point x="1481" y="283" type="curve"/>
      <point x="1683" y="283"/>
      <point x="1919" y="473"/>
      <point x="1919" y="848" type="curve"/>
      <point x="1919" y="1296"/>
      <point x="1548" y="1599"/>
      <point x="1081" y="1599" type="curve"/>
      <point x="544" y="1599"/>
      <point x="152" y="1204"/>
      <point x="152" y="707" type="curve"/>
      <point x="152" y="181"/>
      <point x="502" y="-118"/>
    </contour>
    <contour>
      <point x="964" y="461" type="curve"/>
      <point x="886" y="461"/>
      <point x="841" y="520"/>
      <point x="845" y="660" type="curve"/>
      <point x="851" y="847"/>
      <point x="947" y="1026"/>
      <point x="1105" y="1026" type="curve"/>
      <point x="1132" y="1026"/>
      <point x="1176" y="1022"/>
      <point x="1208" y="1017" type="curve"/>
      <point x="1171" y="783" type="line"/>
      <point x="1138" y="546"/>
      <point x="1082" y="461"/>
    </contour>
  </outline>
</glyph>
<glyph name="E" format="1">
  <advance width="1366"/>
  <unicode hex="0045"/>
  <outline>
    <contour>
      <point x="168" y="1456" type="line"/>
      <point x="168" y="0" type="line"/>
      <point x="1235" y="0" type="line"/>
      <point x="1239" y="271" type="line"/>
      <point x="489" y="271" type="line"/>
      <point x="566" y="198" type="line"/>
      <point x="566" y="687" type="line"/>
      <point x="486" y="613" type="line"/>
      <point x="1183" y="613" type="line"/>
      <point x="1183" y="876" type="line"/>
      <point x="488" y="876" type="line"/>
      <point x="566" y="787" type="line"/>
      <point x="566" y="1294" type="line"/>
      <point x="488" y="1194" type="line"/>
      <point x="1198" y="1194" type="line"/>
      <point x="1219" y="1456" type="line"/>
    </contour>
    <contour>
      <point x="637" y="1456" type="move" name="top"/>
    </contour>
    <contour>
      <point x="986" y="0" type="move" name="ogonek"/>
    </contour>
    <contour>
      <point x="662" y="0" type="move" name="bot"/>
    </contour>
  </outline>
</glyph>
<glyph name="F" format="1">
  <advance width="1261"/>
  <unicode hex="0046"/>
  <outline>
    <contour>
      <point x="168" y="1456" type="line"/>
      <point x="168" y="0" type="line"/>
      <point x="567" y="0" type="line"/>
      <point x="567" y="644" type="line"/>
      <point x="498" y="582" type="line"/>
      <point x="1145" y="582" type="line"/>
      <point x="1145" y="845" type="line"/>
      <point x="481" y="845" type="line"/>
      <point x="567" y="779" type="line"/>
      <point x="567" y="1255" type="line"/>
      <point x="473" y="1182" type="line"/>
      <point x="1165" y="1182" type="line"/>
      <point x="1183" y="1456" type="line"/>
    </contour>
    <contour>
      <point x="531" y="1456" type="move" name="top"/>
    </contour>
  </outline>
</glyph>
<glyph name="G" format="1">
  <advance width="1606"/>
  <unicode hex="0047"/>
  <outline>
    <contour>
      <point x="842" y="-20" type="curve" smooth="yes"/>
      <point x="1093" y="-20"/>
      <point x="1299" y="10"/>
      <point x="1458" y="85" type="curve"/>
      <point x="1458" y="827" type="line"/>
      <point x="839" y="827" type="line"/>
      <point x="830" y="577" type="line"/>
      <point x="1179" y="554" type="line"/>
      <point x="1132" y="612" type="line"/>
      <point x="1132" y="239" type="line"/>
      <point x="1196" y="320" type="line"/>
      <point x="1143" y="281"/>
      <point x="1043" y="247"/>
      <point x="906" y="247" type="curve" smooth="yes"/>
      <point x="720" y="247"/>
      <point x="539" y="332"/>
      <point x="539" y="726" type="curve" smooth="yes"/>
      <point x="539" y="1070"/>
      <point x="652" y="1206"/>
      <point x="879" y="1206" type="curve" smooth="yes"/>
      <point x="1049" y="1206"/>
      <point x="1118" y="1087"/>
      <point x="1166" y="974" type="curve"/>
      <point x="1194" y="974" type="line"/>
      <point x="1463" y="1108" type="line"/>
      <point x="1384" y="1320"/>
      <point x="1200" y="1476"/>
      <point x="842" y="1476" type="curve" smooth="yes"/>
      <point x="394" y="1476"/>
      <point x="112" y="1207"/>
      <point x="112" y="726" type="curve" smooth="yes"/>
      <point x="112" y="237"/>
      <point x="397" y="-20"/>
    </contour>
    <contour>
      <point x="840" y="1456" type="move" name="top"/>
    </contour>
    <contour>
      <point x="755" y="-1" type="move" name="bot"/>
    </contour>
  </outline>
</glyph>
<glyph name="H" format="1">
  <advance width="1599"/>
  <unicode hex="0048"/>
  <outline>
    <contour>
      <point x="1032" y="1456" type="line"/>
      <point x="1032" y="837" type="line"/>
      <point x="1087" y="876" type="line"/>
      <point x="513" y="876" type="line"/>
      <point x="567" y="825" type="line"/>
      <point x="567" y="1456" type="line"/>
      <point x="168" y="1456" type="line"/>
      <point x="168" y="-6" type="line"/>
      <point x="567" y="-6" type="line"/>
      <point x="567" y="660" type="line"/>
      <point x="509" y="615" type="line"/>
      <point x="1097" y="615" type="line"/>
      <point x="1032" y="660" type="line"/>
      <point x="1032" y="-6" type="line"/>
      <point x="1431" y="-6" type="line"/>
      <point x="1431" y="1456" type="line"/>
    </contour>
    <contour>
      <point x="811" y="1456" type="move" name="top"/>
    </contour>
  </outline>
</glyph>
<glyph name="L" format="1">
  <advance width="1215"/>
  <unicode hex="004C"/>
  <outline>
    <contour>
      <point x="168" y="1456" type="line"/>
      <point x="168" y="0" type="line"/>
      <point x="1173" y="0" type="line"/>
      <point x="1195" y="248" type="line"/>
      <point x="375" y="248" type="line"/>
      <point x="567" y="31" type="line"/>
      <point x="567" y="1456" type="line"/>
    </contour>
    <contour>
      <point x="434" y="1082" type="move" name="caron.alt"/>
    </contour>
    <contour>
      <point x="366" y="1456" type="move" name="top"/>
    </contour>
    <contour>
      <point x="384" y="824" type="move" name="mid"/>
    </contour>
    <contour>
      <point x="547" y="0" type="move" name="bot"/>
    </contour>
  </outline>
</glyph>
<glyph name="M" format="1">
  <advance width="1914"/>
  <unicode hex="004D"/>
  <outline>
    <contour>
      <point x="150" y="-6" type="line"/>
      <point x="522" y="-6" type="line"/>
      <point x="522" y="563" type="line"/>
      <point x="537" y="1149" type="line"/>
      <point x="383" y="1177" type="line"/>
      <point x="835" y="243" type="line"/>
      <point x="1070" y="243" type="line"/>
      <point x="1532" y="1180" type="line"/>
      <point x="1375" y="1148" type="line"/>
      <point x="1388" y="566" type="line"/>
      <point x="1388" y="-6" type="line"/>
      <point x="1764" y="-6" type="line"/>
      <point x="1764" y="634" type="line"/>
      <point x="1742" y="1456" type="line"/>
      <point x="1349" y="1456" type="line"/>
      <point x="906" y="576" type="line"/>
      <point x="1019" y="576" type="line"/>
      <point x="573" y="1456" type="line"/>
      <point x="172" y="1456" type="line"/>
      <point x="150" y="625" type="line"/>
    </contour>
    <contour>
      <point x="957" y="1456" type="move" name="top"/>
    </contour>
  </outline>
</glyph>
<glyph name="N" format="1">
  <advance width="1648"/>
  <unicode hex="004E"/>
  <outline>
    <contour>
      <point x="1107" y="1456" type="line"/>
      <point x="1107" y="926" type="line"/>
      <point x="1131" y="395" type="line"/>
      <point x="1226" y="393" type="line"/>
      <point x="543" y="1456" type="line"/>
      <point x="168" y="1456" type="line"/>
      <point x="168" y="0" type="line"/>
      <point x="551" y="0" type="line"/>
      <point x="551" y="509" type="line"/>
      <point x="527" y="1010" type="line"/>
      <point x="435" y="1013" type="line"/>
      <point x="1091" y="0" type="line"/>
      <point x="1480" y="0" type="line"/>
      <point x="1480" y="1456" type="line"/>
    </contour>
    <contour>
      <point x="759" y="1456" type="move" name="top"/>
    </contour>
    <contour>
      <point x="779" y="0" type="move" name="bot"/>
    </contour>
  </outline>
</glyph>
<glyph name="O" format="1">
  <advance width="1665"/>
  <unicode hex="004F"/>
  <outline>
    <contour>
      <point x="112" y="723" type="curve"/>
      <point x="112" y="245"/>
      <point x="377" y="-22"/>
      <point x="834" y="-22" type="curve"/>
      <point x="1294" y="-22"/>
      <point x="1553" y="243"/>
      <point x="1553" y="725" type="curve"/>
      <point x="1553" y="1200"/>
      <point x="1292" y="1476"/>
      <point x="833" y="1476" type="curve"/>
      <point x="376" y="1476"/>
      <point x="112" y="1201"/>
    </contour>
    <contour>
      <point x="1125" y="722" type="curve"/>
      <point x="1125" y="425"/>
      <point x="1023" y="262"/>
      <point x="835" y="262" type="curve"/>
      <point x="646" y="262"/>
      <point x="539" y="424"/>
      <point x="539" y="722" type="curve"/>
      <point x="539" y="1017"/>
      <point x="646" y="1192"/>
      <point x="834" y="1192" type="curve"/>
      <point x="1024" y="1192"/>
      <point x="1125" y="1017"/>
    </contour>
    <contour>
      <point x="822" y="1456" type="move" name="top"/>
    </contour>
    <contour>
      <point x="794" y="-1" type="move" name="ogonek"/>
    </contour>
  </outline>
</glyph>
<glyph name="P" format="1">
  <advance width="1472"/>
  <unicode hex="0050"/>
  <outline>
    <contour>
      <point x="168" y="1456" type="curve"/>
      <point x="168" y="0" type="line"/>
      <point x="567" y="0" type="line"/>
      <point x="567" y="524" type="line"/>
      <point x="498" y="487" type="line"/>
      <point x="1185" y="436"/>
      <point x="1405" y="630"/>
      <point x="1405" y="1002" type="curve" smooth="yes"/>
      <point x="1405" y="1380"/>
      <point x="1145" y="1517"/>
    </contour>
    <contour>
      <point x="505" y="1214" type="line"/>
      <point x="966" y="1242"/>
      <point x="1023" y="1128"/>
      <point x="1023" y="983" type="curve" smooth="yes"/>
      <point x="1023" y="829"/>
      <point x="935" y="706"/>
      <point x="513" y="740" type="curve"/>
      <point x="567" y="689" type="line"/>
      <point x="567" y="1267" type="line"/>
    </contour>
    <contour>
      <point x="736" y="1456" type="move" name="top"/>
    </contour>
  </outline>
</glyph>
<glyph name="R" format="1">
  <advance width="1509"/>
  <unicode hex="0052"/>
  <outline>
    <contour>
      <point x="168" y="0" type="line"/>
      <point x="567" y="0" type="line"/>
      <point x="567" y="657" type="line"/>
      <point x="490" y="597" type="line"/>
      <point x="814" y="596" type="line"/>
      <point x="732" y="654" type="line"/>
      <point x="1006" y="0" type="line"/>
      <point x="1432" y="0" type="line"/>
      <point x="1432" y="12" type="line"/>
      <point x="1130" y="682" type="line"/>
      <point x="1095" y="611" type="line"/>
      <point x="1188" y="643"/>
      <point x="1369" y="755"/>
      <point x="1369" y="1006" type="curve"/>
      <point x="1378" y="1347"/>
      <point x="1245" y="1516"/>
      <point x="168" y="1456" type="curve"/>
    </contour>
    <contour>
      <point x="567" y="769" type="line"/>
      <point x="567" y="1299" type="line"/>
      <point x="503" y="1220" type="line"/>
      <point x="923" y="1244"/>
      <point x="1013" y="1168"/>
      <point x="1010" y="1025" type="curve"/>
      <point x="1008" y="898"/>
      <point x="899" y="828"/>
      <point x="760" y="829" type="curve"/>
      <point x="522" y="829" type="line"/>
    </contour>
    <contour>
      <point x="762" y="1456" type="move" name="top"/>
    </contour>
    <contour>
      <point x="752" y="0" type="move" name="bot"/>
    </contour>
  </outline>
</glyph>
<glyph name="S" format="1">
  <advance width="1229"/>
  <unicode hex="0053"/>
  <outline>
    <contour>
      <point x="614" y="-20" type="curve" smooth="yes"/>
      <point x="928" y="-20"/>
      <point x="1150" y="135"/>
      <point x="1151" y="414" type="curve" smooth="yes"/>
      <point x="1152" y="678"/>
      <point x="1025" y="771"/>
      <point x="818" y="854" type="curve" smooth="yes"/>
      <point x="650" y="921" type="line" smooth="yes"/>
      <point x="524" y="971"/>
      <point x="477" y="1003"/>
      <point x="477" y="1083" type="curve" smooth="yes"/>
      <point x="477" y="1178"/>
      <point x="548" y="1218"/>
      <point x="625" y="1218" type="curve" smooth="yes"/>
      <point x="687" y="1218"/>
      <point x="783" y="1172"/>
      <point x="820" y="1070" type="curve"/>
      <point x="845" y="1070" type="line"/>
      <point x="1110" y="1198" type="line"/>
      <point x="1073" y="1313"/>
      <point x="912" y="1474"/>
      <point x="616" y="1476" type="curve" smooth="yes"/>
      <point x="335" y="1480"/>
      <point x="87" y="1357"/>
      <point x="87" y="1052" type="curve" smooth="yes"/>
      <point x="87" y="825"/>
      <point x="194" y="726"/>
      <point x="350" y="662" type="curve" smooth="yes"/>
      <point x="576" y="570" type="line" smooth="yes"/>
      <point x="727" y="508"/>
      <point x="747" y="464"/>
      <point x="747" y="387" type="curve" smooth="yes"/>
      <point x="747" y="296"/>
      <point x="686" y="259"/>
      <point x="597" y="259" type="curve" smooth="yes"/>
      <point x="499" y="259"/>
      <point x="396" y="348"/>
      <point x="347" y="417" type="curve"/>
      <point x="313" y="417" type="line"/>
      <point x="72" y="242" type="line"/>
      <point x="149" y="122"/>
      <point x="317" y="-20"/>
    </contour>
    <contour>
      <point x="618" y="1456" type="move" name="top"/>
    </contour>
    <contour>
      <point x="603" y="0" type="move" name="bot"/>
    </contour>
  </outline>
</glyph>
<glyph name="T" format="1">
  <advance width="1293"/>
  <unicode hex="0054"/>
  <outline>
    <contour>
      <point x="46" y="1456" type="line"/>
      <point x="46" y="1208" type="line"/>
      <point x="503" y="1208" type="line"/>
      <point x="448" y="1262" type="line"/>
      <point x="448" y="-6" type="line"/>
      <point x="846" y="-6" type="line"/>
      <point x="846" y="1261" type="line"/>
      <point x="794" y="1208" type="line"/>
      <point x="1247" y="1208" type="line"/>
      <point x="1247" y="1456" type="line"/>
    </contour>
    <contour>
      <point x="654" y="1456" type="move" name="top"/>
    </contour>
    <contour>
      <point x="653" y="0" type="move" name="bot"/>
    </contour>
    <contour>
      <point x="643" y="642" type="move" name="mid"/>
    </contour>
  </outline>
</glyph>
<glyph name="U" format="1">
  <advance width="1535"/>
  <unicode hex="0055"/>
  <outline>
    <contour>
      <point x="997" y="1456" type="line"/>
      <point x="997" y="558" type="line"/>
      <point x="997" y="348"/>
      <point x="914" y="263"/>
      <point x="763" y="263" type="curve"/>
      <point x="620" y="263"/>
      <point x="538" y="346"/>
      <point x="538" y="556" type="curve"/>
      <point x="538" y="1456" type="line"/>
      <point x="140" y="1456" type="line"/>
      <point x="140" y="532" type="line"/>
      <point x="140" y="184"/>
      <point x="355" y="-20"/>
      <point x="763" y="-20" type="curve"/>
      <point x="1171" y="-20"/>
      <point x="1395" y="186"/>
      <point x="1395" y="532" type="curve"/>
      <point x="1395" y="1456" type="line"/>
    </contour>
    <contour>
      <point x="767" y="1456" type="move" name="top"/>
    </contour>
    <contour>
      <point x="833" y="0" type="move" name="ogonek"/>
    </contour>
    <contour>
      <point x="783" y="0" type="move" name="bot"/>
    </contour>
  </outline>
</glyph>
<glyph name="V" format="1">
  <advance width="1373"/>
  <unicode hex="0056"/>
  <outline>
    <contour>
      <point x="440" y="-6" type="line"/>
      <point x="894" y="-6" type="line"/>
      <point x="1373" y="1456" type="line"/>
      <point x="991" y="1456" type="line"/>
      <point x="713" y="488" type="line"/>
      <point x="625" y="111" type="line"/>
      <point x="735" y="111" type="line"/>
      <point x="646" y="485" type="line"/>
      <point x="385" y="1456" type="line"/>
      <point x="0" y="1456" type="line"/>
    </contour>
  </outline>
</glyph>
<glyph name="W" format="1">
  <advance width="2054"/>
  <unicode hex="0057"/>
  <outline>
    <contour>
      <point x="1623" y="1456" type="line"/>
      <point x="1408" y="394" type="line"/>
      <point x="1466" y="394" type="line"/>
      <point x="1175" y="1452" type="line"/>
      <point x="862" y="1452" type="line"/>
      <point x="575" y="404" type="line"/>
      <point x="629" y="404" type="line"/>
      <point x="431" y="1456" type="line"/>
      <point x="46" y="1456" type="line"/>
      <point x="391" y="0" type="line"/>
      <point x="754" y="0" type="line"/>
      <point x="1054" y="1078" type="line"/>
      <point x="985" y="1078" type="line"/>
      <point x="1270" y="0" type="line"/>
      <point x="1630" y="0" type="line"/>
      <point x="2008" y="1456" type="line"/>
    </contour>
    <contour>
      <point x="1031" y="1456" type="move" name="top"/>
    </contour>
    <contour>
      <point x="1006" y="0" type="move" name="bot"/>
    </contour>
  </outline>
</glyph>
<glyph name="X" format="1">
  <advance width="1434"/>
  <unicode hex="0058"/>
  <outline>
    <contour>
      <point x="997" y="1456" type="line"/>
      <point x="686" y="958" type="line"/>
      <point x="518" y="800" type="line"/>
      <point x="-16" y="-6" type="line"/>
      <point x="397" y="-6" type="line"/>
      <point x="783" y="577" type="line"/>
      <point x="941" y="721" type="line"/>
      <point x="1424" y="1456" type="line"/>
    </contour>
    <contour>
      <point x="43" y="1456" type="line"/>
      <point x="1017" y="-6" type="line"/>
      <point x="1450" y="-6" type="line"/>
      <point x="477" y="1456" type="line"/>
    </contour>
  </outline>
</glyph>
<glyph name="bracketleft" format="1">
  <advance width="823"/>
  <unicode hex="005B"/>
  <outline>
    <contour>
      <point x="227" y="-249" type="line"/>
      <point x="673" y="-249" type="line"/>
      <point x="673" y="-32" type="line"/>
      <point x="483" y="-32" type="line"/>
      <point x="483" y="1269" type="line"/>
      <point x="673" y="1269" type="line"/>
      <point x="673" y="1484" type="line"/>
      <point x="227" y="1484" type="line"/>
    </contour>
  </outline>
</glyph>
<glyph name="backslash" format="1">
  <advance width="937"/>
  <unicode hex="005C"/>
  <outline>
    <contour>
      <point x="561" y="22" type="line"/>
      <point x="828" y="22" type="line"/>
      <point x="364" y="1510" type="line"/>
      <point x="93" y="1510" type="line"/>
    </contour>
  </outline>
</glyph>
<glyph name="bracketright" format="1">
  <advance width="965"/>
  <unicode hex="005D"/>
  <outline>
    <contour>
      <point x="297" y="-249" type="line"/>
      <point x="743" y="-249" type="line"/>
      <point x="743" y="1484" type="line"/>
      <point x="297" y="1484" type="line"/>
      <point x="297" y="1269" type="line"/>
      <point x="487" y="1269" type="line"/>
      <point x="487" y="-32" type="line"/>
      <point x="297" y="-32" type="line"/>
    </contour>
  </outline>
</glyph>
<glyph name="asciicircum" format="1">
  <advance width="1355"/>
  <unicode hex="005E"/>
  <outline>
    <contour>
      <point x="632" y="1506" type="line"/>
      <point x="-100" y="-37" type="line"/>
      <point x="162" y="-37" type="line"/>
      <point x="660" y="1114" type="line"/>
      <point x="1209" y="-37" type="line"/>
      <point x="1472" y="-37" type="line"/>
      <point x="672" y="1506" type="line"/>
    </contour>
  </outline>
</glyph>
<glyph name="underscore" format="1">
  <advance width="1197"/>
  <unicode hex="005F"/>
  <outline>
    <contour>
      <point x="-52" y="-178" type="line"/>
      <point x="959" y="-178" type="line"/>
      <point x="959" y="28" type="line"/>
      <point x="-52" y="28" type="line"/>
    </contour>
  </outline>
</glyph>
<glyph name="grave" format="1">
  <advance width="1093"/>
  <unicode hex="0060"/>
  <outline>
    <contour>
      <point x="448" y="1207" type="line"/>
      <point x="631" y="1207" type="line"/>
      <point x="459" y="1617" type="line"/>
      <point x="82" y="1617" type="line"/>
    </contour>
    <contour>
      <point x="567" y="1082" type="move" name="_top"/>
    </contour>
  </outline>
</glyph>
<glyph name="a" format="1">
  <advance width="1151"/>
  <unicode hex="0061"/>
  <outline>
    <contour>
      <point x="421" y="-16" type="curve" smooth="yes"/>
      <point x="629" y="-7"/>
      <point x="717" y="93"/>
      <point x="800" y="188" type="curve"/>
      <point x="711" y="188" type="line"/>
      <point x="765" y="0" type="line"/>
      <point x="1049" y="0" type="line"/>
      <point x="1049" y="626" type="line" smooth="yes"/>
      <point x="1049" y="964"/>
      <point x="844" y="1100"/>
      <point x="583" y="1100" type="curve" smooth="yes"/>
      <point x="433" y="1100"/>
      <point x="265" y="1056"/>
      <point x="106" y="979" type="curve"/>
      <point x="173" y="759" type="line"/>
      <point x="296" y="806"/>
      <point x="420" y="841"/>
      <point x="515" y="841" type="curve" smooth="yes"/>
      <point x="615" y="841"/>
      <point x="682" y="802"/>
      <point x="682" y="697" type="curve" smooth="yes"/>
      <point x="682" y="594" type="line"/>
      <point x="709" y="629" type="line"/>
      <point x="548" y="630" type="line" smooth="yes"/>
      <point x="340" y="631"/>
      <point x="66" y="568"/>
      <point x="66" y="306" type="curve" smooth="yes"/>
      <point x="66" y="85"/>
      <point x="214" y="-25"/>
    </contour>
    <contour>
      <point x="535" y="183" type="curve" smooth="yes"/>
      <point x="468" y="176"/>
      <point x="396" y="217"/>
      <point x="399" y="317" type="curve" smooth="yes"/>
      <point x="401" y="435"/>
      <point x="516" y="464"/>
      <point x="629" y="464" type="curve" smooth="yes"/>
      <point x="712" y="464" type="line"/>
      <point x="680" y="499" type="line"/>
      <point x="680" y="224" type="line"/>
      <point x="717" y="296" type="line"/>
      <point x="693" y="270"/>
      <point x="663" y="197"/>
    </contour>
    <contour>
      <point x="546" y="1081" type="move" name="top"/>
    </contour>
    <contour>
      <point x="882" y="-1" type="move" name="ogonek"/>
    </contour>
    <contour>
      <point x="630" y="-1" type="move" name="bot"/>
    </contour>
  </outline>
</glyph>
<glyph name="b" format="1">
  <advance width="1270"/>
  <unicode hex="0062"/>
  <outline>
    <contour>
      <point x="124" y="1540" type="line"/>
      <point x="124" y="0" type="line"/>
      <point x="459" y="0" type="line"/>
      <point x="474" y="210" type="line"/>
      <point x="439" y="210" type="line"/>
      <point x="458" y="130"/>
      <point x="547" y="-20"/>
      <point x="756" y="-20" type="curve" smooth="yes"/>
      <point x="1053" y="-20"/>
      <point x="1194" y="217"/>
      <point x="1194" y="550" type="curve" smooth="yes"/>
      <point x="1194" y="861"/>
      <point x="1053" y="1102"/>
      <point x="765" y="1102" type="curve" smooth="yes"/>
      <point x="514" y="1102"/>
      <point x="429" y="897"/>
      <point x="426" y="721" type="curve"/>
      <point x="476" y="722" type="line"/>
      <point x="497" y="1153" type="line"/>
      <point x="497" y="1560" type="line"/>
    </contour>
    <contour>
      <point x="756" y="863"/>
      <point x="818" y="807"/>
      <point x="818" y="550" type="curve" smooth="yes"/>
      <point x="818" y="301"/>
      <point x="742" y="217"/>
      <point x="666" y="217" type="curve" smooth="yes"/>
      <point x="564" y="217"/>
      <point x="528" y="255"/>
      <point x="497" y="294" type="curve"/>
      <point x="497" y="566" type="line" smooth="yes"/>
      <point x="497" y="813"/>
      <point x="593" y="863"/>
      <point x="679" y="863" type="curve" smooth="yes"/>
    </contour>
    <contour>
      <point x="786" y="1082" type="move" name="top"/>
    </contour>
  </outline>
</glyph>
<glyph name="c" format="1">
  <advance width="1134"/>
  <unicode hex="0063"/>
  <outline>
    <contour>
      <point x="841" y="368" type="line"/>
      <point x="819" y="284"/>
      <point x="744" y="233"/>
      <point x="665" y="232" type="curve" smooth="yes"/>
      <point x="561" y="231"/>
      <point x="451" y="319"/>
      <point x="451" y="541" type="curve" smooth="yes"/>
      <point x="451" y="763"/>
      <point x="561" y="851"/>
      <point x="665" y="850" type="curve" smooth="yes"/>
      <point x="744" y="849"/>
      <point x="819" y="798"/>
      <point x="841" y="714" type="curve"/>
      <point x="853" y="714" type="line"/>
      <point x="1082" y="837" type="line"/>
      <point x="997" y="1027"/>
      <point x="853" y="1102"/>
      <point x="647" y="1102" type="curve" smooth="yes"/>
      <point x="296" y="1102"/>
      <point x="76" y="887"/>
      <point x="76" y="541" type="curve" smooth="yes"/>
      <point x="76" y="195"/>
      <point x="296" y="-20"/>
      <point x="647" y="-20" type="curve" smooth="yes"/>
      <point x="853" y="-20"/>
      <point x="997" y="55"/>
      <point x="1082" y="245" type="curve"/>
      <point x="853" y="368" type="line"/>
    </contour>
    <contour>
      <point x="621" y="1082" type="move" name="top"/>
    </contour>
    <contour>
      <point x="630" y="0" type="move" name="bot"/>
    </contour>
  </outline>
</glyph>
<glyph name="d" format="1">
  <advance width="1270"/>
  <unicode hex="0064"/>
  <outline>
    <contour>
      <point x="775" y="1540" type="line"/>
      <point x="775" y="1136" type="line"/>
      <point x="782" y="872" type="line"/>
      <point x="831" y="872" type="line"/>
      <point x="812" y="952"/>
      <point x="723" y="1102"/>
      <point x="514" y="1102" type="curve" smooth="yes"/>
      <point x="217" y="1102"/>
      <point x="76" y="865"/>
      <point x="76" y="532" type="curve" smooth="yes"/>
      <point x="76" y="221"/>
      <point x="217" y="-20"/>
      <point x="505" y="-20" type="curve" smooth="yes"/>
      <point x="756" y="-20"/>
      <point x="841" y="185"/>
      <point x="844" y="361" type="curve"/>
      <point x="794" y="360" type="line"/>
      <point x="811" y="0" type="line"/>
      <point x="1146" y="0" type="line"/>
      <point x="1146" y="1560" type="line"/>
    </contour>
    <contour>
      <point x="603" y="219" type="curve" smooth="yes"/>
      <point x="526" y="219"/>
      <point x="452" y="275"/>
      <point x="452" y="532" type="curve" smooth="yes"/>
      <point x="452" y="821"/>
      <point x="541" y="865"/>
      <point x="617" y="865" type="curve" smooth="yes"/>
      <point x="699" y="865"/>
      <point x="742" y="827"/>
      <point x="773" y="788" type="curve"/>
      <point x="773" y="315" type="line"/>
      <point x="741" y="256"/>
      <point x="679" y="219"/>
    </contour>
    <contour>
      <point x="928" y="1292" type="move" name="mid"/>
    </contour>
    <contour>
      <point x="987" y="1082" type="move" name="caron.alt"/>
    </contour>
    <contour>
      <point x="447" y="1082" type="move" name="top"/>
    </contour>
  </outline>
</glyph>
<glyph name="e" format="1">
  <advance width="1205.05112961"/>
  <unicode hex="0065"/>
  <outline>
    <contour>
      <point x="665" y="-20" type="curve" smooth="yes"/>
      <point x="851" y="-20"/>
      <point x="1018" y="36"/>
      <point x="1101" y="117" type="curve"/>
      <point x="1021" y="306" type="line"/>
      <point x="1003" y="306" type="line"/>
      <point x="920" y="253"/>
      <point x="816" y="217"/>
      <point x="707" y="217" type="curve" smooth="yes"/>
      <point x="557" y="217"/>
      <point x="450" y="308"/>
      <point x="450" y="466" type="curve"/>
      <point x="423" y="427" type="line"/>
      <point x="1100" y="427" type="line"/>
      <point x="1100" y="427"/>
      <point x="1114" y="483"/>
      <point x="1113" y="575" type="curve"/>
      <point x="1103" y="881"/>
      <point x="977" y="1102"/>
      <point x="625" y="1102" type="curve" smooth="yes"/>
      <point x="288" y="1102"/>
      <point x="76" y="886"/>
      <point x="76" y="542" type="curve"/>
      <point x="76" y="197"/>
      <point x="303" y="-20"/>
    </contour>
    <contour>
      <point x="455" y="624" type="line"/>
      <point x="462" y="801"/>
      <point x="537" y="868"/>
      <point x="644" y="868" type="curve" smooth="yes"/>
      <point x="746" y="868"/>
      <point x="799" y="798"/>
      <point x="799" y="624" type="curve"/>
    </contour>
    <contour>
      <point x="629" y="1082" type="move" name="top"/>
    </contour>
    <contour>
      <point x="818" y="0" type="move" name="ogonek"/>
    </contour>
    <contour>
      <point x="665" y="0" type="move" name="bot"/>
    </contour>
  </outline>
</glyph>
<glyph name="g" format="1">
  <advance width="1262"/>
  <unicode hex="0067"/>
  <outline>
    <contour>
      <point x="586" y="-514" type="curve" smooth="yes"/>
      <point x="883" y="-514"/>
      <point x="1146" y="-370"/>
      <point x="1146" y="-19" type="curve" smooth="yes"/>
      <point x="1146" y="1088" type="line"/>
      <point x="777" y="1088" type="line"/>
      <point x="777" y="929" type="line"/>
      <point x="818" y="931" type="line"/>
      <point x="779" y="1003"/>
      <point x="699" y="1101"/>
      <point x="529" y="1102" type="curve" smooth="yes"/>
      <point x="324" y="1103"/>
      <point x="76" y="960"/>
      <point x="76" y="565" type="curve" smooth="yes"/>
      <point x="76" y="84"/>
      <point x="333" y="1"/>
      <point x="510" y="0" type="curve" smooth="yes"/>
      <point x="773" y="-1"/>
      <point x="822" y="176"/>
      <point x="835" y="218" type="curve"/>
      <point x="782" y="231" type="line"/>
      <point x="803" y="24" type="line" smooth="yes"/>
      <point x="824" y="-194"/>
      <point x="698" y="-276"/>
      <point x="518" y="-277" type="curve" smooth="yes"/>
      <point x="436" y="-278"/>
      <point x="342" y="-261"/>
      <point x="246" y="-233" type="curve"/>
      <point x="216" y="-233" type="line"/>
      <point x="190" y="-469" type="line"/>
      <point x="311" y="-503"/>
      <point x="443" y="-514"/>
    </contour>
    <contour>
      <point x="617" y="217" type="curve" smooth="yes"/>
      <point x="521" y="217"/>
      <point x="453" y="314"/>
      <point x="453" y="564" type="curve" smooth="yes"/>
      <point x="453" y="834"/>
      <point x="560" y="863"/>
      <point x="623" y="863" type="curve" smooth="yes"/>
      <point x="706" y="863"/>
      <point x="734" y="837"/>
      <point x="775" y="796" type="curve"/>
      <point x="775" y="270" type="line"/>
      <point x="738" y="240"/>
      <point x="674" y="217"/>
    </contour>
    <contour>
      <point x="578" y="1082" type="move" name="top"/>
    </contour>
  </outline>
</glyph>
<glyph name="h" format="1">
  <advance width="1269"/>
  <unicode hex="0068"/>
  <outline>
    <contour>
      <point x="124" y="0" type="line"/>
      <point x="502" y="0" type="line"/>
      <point x="502" y="623" type="line"/>
      <point x="502" y="801"/>
      <point x="569" y="863"/>
      <point x="650" y="863" type="curve"/>
      <point x="734" y="863"/>
      <point x="777" y="814"/>
      <point x="777" y="623" type="curve"/>
      <point x="777" y="0" type="line"/>
      <point x="1155" y="0" type="line"/>
      <point x="1155" y="673" type="line"/>
      <point x="1155" y="938"/>
      <point x="1047" y="1102"/>
      <point x="805" y="1102" type="curve"/>
      <point x="538" y="1102"/>
      <point x="463" y="896"/>
      <point x="442" y="685" type="curve"/>
      <point x="491" y="684" type="line"/>
      <point x="502" y="1160" type="line"/>
      <point x="502" y="1560" type="line"/>
      <point x="124" y="1540" type="line"/>
    </contour>
    <contour>
      <point x="512" y="1535" type="move" name="top"/>
    </contour>
    <contour>
      <point x="404" y="1246" type="move" name="mid"/>
    </contour>
  </outline>
</glyph>
<glyph name="k" format="1">
  <advance width="1224"/>
  <unicode hex="006B"/>
  <outline>
    <contour>
      <point x="122" y="0" type="line"/>
      <point x="500" y="0" type="line"/>
      <point x="500" y="459" type="line"/>
      <point x="463" y="392" type="line"/>
      <point x="565" y="498" type="line"/>
      <point x="521" y="502" type="line"/>
      <point x="831" y="0" type="line"/>
      <point x="1207" y="0" type="line"/>
      <point x="1207" y="32" type="line"/>
      <point x="788" y="668" type="line"/>
      <point x="788" y="572" type="line"/>
      <point x="1194" y="1064" type="line"/>
      <point x="1194" y="1082" type="line"/>
      <point x="804" y="1082" type="line"/>
      <point x="463" y="679" type="line"/>
      <point x="493" y="669" type="line"/>
      <point x="500" y="847" type="line"/>
      <point x="500" y="1560" type="line"/>
      <point x="122" y="1540" type="line"/>
    </contour>
    <contour>
      <point x="655" y="0" type="move" name="bot"/>
    </contour>
  </outline>
</glyph>
<glyph name="l" format="1">
  <advance width="772"/>
  <unicode hex="006C"/>
  <outline>
    <contour>
      <point x="641" y="-10" type="curve" smooth="yes"/>
      <point x="740" y="-6" type="line"/>
      <point x="752" y="220" type="line"/>
      <point x="598" y="231" type="line" smooth="yes"/>
      <point x="524" y="236"/>
      <point x="504" y="281"/>
      <point x="504" y="323" type="curve" smooth="yes"/>
      <point x="504" y="1560" type="line"/>
      <point x="126" y="1540" type="line"/>
      <point x="126" y="366" type="line" smooth="yes"/>
      <point x="126" y="81"/>
      <point x="263" y="-25"/>
    </contour>
    <contour>
      <point x="314" y="1560" type="move" name="top"/>
    </contour>
    <contour>
      <point x="323" y="884" type="move" name="mid"/>
    </contour>
    <contour>
      <point x="367" y="1082" type="move" name="caron.alt"/>
    </contour>
  </outline>
</glyph>
<glyph name="n" format="1">
  <advance width="1273"/>
  <unicode hex="006E"/>
  <outline>
    <contour>
      <point x="128" y="0" type="line"/>
      <point x="506" y="0" type="line"/>
      <point x="506" y="623" type="line"/>
      <point x="506" y="801"/>
      <point x="573" y="863"/>
      <point x="654" y="863" type="curve"/>
      <point x="738" y="863"/>
      <point x="781" y="814"/>
      <point x="781" y="623" type="curve"/>
      <point x="781" y="0" type="line"/>
      <point x="1159" y="0" type="line"/>
      <point x="1159" y="673" type="line"/>
      <point x="1159" y="938"/>
      <point x="1032" y="1102"/>
      <point x="790" y="1102" type="curve"/>
      <point x="493" y="1102"/>
      <point x="430" y="846"/>
      <point x="409" y="725" type="curve"/>
      <point x="497" y="684" type="line"/>
      <point x="453" y="1082" type="line"/>
      <point x="128" y="1082" type="line"/>
    </contour>
    <contour>
      <point x="703" y="1082" type="move" name="top"/>
    </contour>
    <contour>
      <point x="659" y="0" type="move" name="bot"/>
    </contour>
  </outline>
</glyph>
<glyph name="o" format="1">
  <advance width="1259"/>
  <unicode hex="006F"/>
  <outline>
    <contour>
      <point x="630" y="217" type="curve"/>
      <point x="520" y="217"/>
      <point x="452" y="307"/>
      <point x="452" y="545" type="curve"/>
      <point x="452" y="777"/>
      <point x="518" y="863"/>
      <point x="630" y="863" type="curve"/>
      <point x="741" y="863"/>
      <point x="807" y="777"/>
      <point x="807" y="545" type="curve"/>
      <point x="807" y="309"/>
      <point x="738" y="217"/>
    </contour>
    <contour>
      <point x="630" y="-22" type="curve"/>
      <point x="972" y="-22"/>
      <point x="1183" y="209"/>
      <point x="1183" y="545" type="curve"/>
      <point x="1183" y="873"/>
      <point x="969" y="1102"/>
      <point x="630" y="1102" type="curve"/>
      <point x="290" y="1102"/>
      <point x="76" y="873"/>
      <point x="76" y="545" type="curve"/>
      <point x="76" y="209"/>
      <point x="287" y="-22"/>
    </contour>
    <contour>
      <point x="631" y="1082" type="move" name="top"/>
    </contour>
    <contour>
      <point x="660" y="0" type="move" name="ogonek"/>
    </contour>
  </outline>
</glyph>
<glyph name="p" format="1">
  <advance width="1262"/>
  <unicode hex="0070"/>
  <outline>
    <contour>
      <point x="116" y="-478" type="line"/>
      <point x="487" y="-478" type="line"/>
      <point x="487" y="-54" type="line"/>
      <point x="480" y="210" type="line"/>
      <point x="431" y="210" type="line"/>
      <point x="450" y="130"/>
      <point x="539" y="-20"/>
      <point x="748" y="-20" type="curve" smooth="yes"/>
      <point x="1045" y="-20"/>
      <point x="1186" y="217"/>
      <point x="1186" y="550" type="curve" smooth="yes"/>
      <point x="1186" y="861"/>
      <point x="1045" y="1102"/>
      <point x="757" y="1102" type="curve" smooth="yes"/>
      <point x="506" y="1102"/>
      <point x="421" y="897"/>
      <point x="418" y="721" type="curve"/>
      <point x="468" y="722" type="line"/>
      <point x="451" y="1082" type="line"/>
      <point x="116" y="1082" type="line"/>
    </contour>
    <contour>
      <point x="645" y="217" type="curve" smooth="yes"/>
      <point x="563" y="217"/>
      <point x="520" y="255"/>
      <point x="489" y="294" type="curve"/>
      <point x="489" y="767" type="line"/>
      <point x="521" y="826"/>
      <point x="583" y="863"/>
      <point x="659" y="863" type="curve" smooth="yes"/>
      <point x="736" y="863"/>
      <point x="810" y="807"/>
      <point x="810" y="550" type="curve" smooth="yes"/>
      <point x="810" y="261"/>
      <point x="721" y="217"/>
    </contour>
    <contour>
      <point x="648" y="1082" type="move" name="top"/>
    </contour>
  </outline>
</glyph>
<glyph name="q" format="1">
  <advance width="1262"/>
  <unicode hex="0071"/>
  <outline>
    <contour>
      <point x="775" y="-478" type="line"/>
      <point x="1146" y="-478" type="line"/>
      <point x="1146" y="1082" type="line"/>
      <point x="811" y="1082" type="line"/>
      <point x="794" y="722" type="line"/>
      <point x="844" y="721" type="line"/>
      <point x="841" y="897"/>
      <point x="756" y="1102"/>
      <point x="505" y="1102" type="curve" smooth="yes"/>
      <point x="217" y="1102"/>
      <point x="76" y="861"/>
      <point x="76" y="550" type="curve" smooth="yes"/>
      <point x="76" y="217"/>
      <point x="217" y="-20"/>
      <point x="514" y="-20" type="curve" smooth="yes"/>
      <point x="723" y="-20"/>
      <point x="812" y="130"/>
      <point x="831" y="210" type="curve"/>
      <point x="782" y="210" type="line"/>
      <point x="775" y="-54" type="line"/>
    </contour>
    <contour>
      <point x="617" y="217" type="curve" smooth="yes"/>
      <point x="541" y="217"/>
      <point x="452" y="261"/>
      <point x="452" y="550" type="curve" smooth="yes"/>
      <point x="452" y="807"/>
      <point x="526" y="863"/>
      <point x="603" y="863" type="curve" smooth="yes"/>
      <point x="679" y="863"/>
      <point x="741" y="826"/>
      <point x="773" y="767" type="curve"/>
      <point x="773" y="294" type="line"/>
      <point x="742" y="255"/>
      <point x="699" y="217"/>
    </contour>
  </outline>
</glyph>
<glyph name="r" format="1">
  <advance width="891"/>
  <unicode hex="0072"/>
  <outline>
    <contour>
      <point x="116" y="0" type="line"/>
      <point x="494" y="0" type="line"/>
      <point x="494" y="608" type="line"/>
      <point x="494" y="755"/>
      <point x="644" y="823"/>
      <point x="784" y="809" type="curve" smooth="yes"/>
      <point x="854" y="802" type="line"/>
      <point x="867" y="1074" type="line"/>
      <point x="809" y="1085"/>
      <point x="753" y="1087"/>
      <point x="725" y="1087" type="curve"/>
      <point x="623" y="1087"/>
      <point x="492" y="1023"/>
      <point x="442" y="853" type="curve"/>
      <point x="472" y="844" type="line"/>
      <point x="447" y="1082" type="line"/>
      <point x="116" y="1082" type="line"/>
    </contour>
    <contour>
      <point x="419" y="1082" type="move" name="top"/>
    </contour>
    <contour>
      <point x="369" y="0" type="move" name="bot"/>
    </contour>
  </outline>
</glyph>
<glyph name="s" format="1">
  <advance width="1014.996"/>
  <unicode hex="0073"/>
  <outline>
    <contour>
      <point x="253" y="374" type="line"/>
      <point x="42" y="238" type="line"/>
      <point x="102" y="65"/>
      <point x="322" y="-20"/>
      <point x="516" y="-20" type="curve" smooth="yes"/>
      <point x="796" y="-20"/>
      <point x="981" y="100"/>
      <point x="978" y="318" type="curve" smooth="yes"/>
      <point x="976" y="448"/>
      <point x="950" y="545"/>
      <point x="725" y="632" type="curve" smooth="yes"/>
      <point x="578" y="689" type="line" smooth="yes"/>
      <point x="493" y="722"/>
      <point x="484" y="767"/>
      <point x="484" y="797" type="curve" smooth="yes"/>
      <point x="484" y="836"/>
      <point x="526" y="863"/>
      <point x="562" y="863" type="curve" smooth="yes"/>
      <point x="621" y="863"/>
      <point x="695" y="829"/>
      <point x="739" y="744" type="curve"/>
      <point x="754" y="744" type="line"/>
      <point x="953" y="880" type="line"/>
      <point x="884" y="1061"/>
      <point x="660" y="1102"/>
      <point x="518" y="1102" type="curve" smooth="yes"/>
      <point x="232" y="1102"/>
      <point x="96" y="978"/>
      <point x="93" y="785" type="curve" smooth="yes"/>
      <point x="90" y="616"/>
      <point x="186" y="522"/>
      <point x="386" y="445" type="curve" smooth="yes"/>
      <point x="493" y="404" type="line" smooth="yes"/>
      <point x="598" y="364"/>
      <point x="621" y="334"/>
      <point x="620" y="299" type="curve" smooth="yes"/>
      <point x="619" y="263"/>
      <point x="597" y="223"/>
      <point x="529" y="223" type="curve" smooth="yes"/>
      <point x="453" y="223"/>
      <point x="346" y="258"/>
      <point x="284" y="374" type="curve"/>
    </contour>
    <contour>
      <point x="482" y="1081" type="move" name="top"/>
    </contour>
    <contour>
      <point x="522" y="0" type="move" name="bot"/>
    </contour>
  </outline>
</glyph>
<glyph name="t" format="1">
  <advance width="906"/>
  <unicode hex="0074"/>
  <outline>
    <contour>
      <point x="642" y="-10" type="curve" smooth="yes"/>
      <point x="642" y="-10"/>
      <point x="868" y="-2"/>
      <point x="868" y="-2" type="curve"/>
      <point x="878" y="240" type="line"/>
      <point x="713" y="247" type="line" smooth="yes"/>
      <point x="596" y="252"/>
      <point x="563" y="303"/>
      <point x="563" y="417" type="curve" smooth="yes"/>
      <point x="563" y="909" type="line"/>
      <point x="521" y="867" type="line"/>
      <point x="851" y="867" type="line"/>
      <point x="851" y="1082" type="line"/>
      <point x="521" y="1082" type="line"/>
      <point x="563" y="1045" type="line"/>
      <point x="563" y="1423" type="line"/>
      <point x="220" y="1396" type="line"/>
      <point x="200" y="1058" type="line"/>
      <point x="237" y="1090" type="line"/>
      <point x="38" y="1064" type="line"/>
      <point x="30" y="867" type="line"/>
      <point x="237" y="867" type="line"/>
      <point x="191" y="908" type="line"/>
      <point x="191" y="430" type="line" smooth="yes"/>
      <point x="191" y="145"/>
      <point x="244" y="-10"/>
    </contour>
    <contour>
      <point x="437" y="1317" type="move" name="top"/>
    </contour>
    <contour>
      <point x="385" y="726" type="move" name="mid"/>
    </contour>
    <contour>
      <point x="425" y="1081" type="move" name="ron.alt"/>
    </contour>
    <contour>
      <point x="519" y="0" type="move" name="bot"/>
    </contour>
  </outline>
</glyph>
<glyph name="u" format="1">
  <advance width="1269"/>
  <unicode hex="0075"/>
  <outline>
    <contour>
      <point x="483" y="-20" type="curve"/>
      <point x="694" y="-20"/>
      <point x="787" y="110"/>
      <point x="831" y="228" type="curve"/>
      <point x="793" y="242" type="line"/>
      <point x="820" y="0" type="line"/>
      <point x="1145" y="0" type="line"/>
      <point x="1145" y="1082" type="line"/>
      <point x="767" y="1082" type="line"/>
      <point x="767" y="237" type="line"/>
      <point x="787" y="329" type="line"/>
      <point x="758" y="282"/>
      <point x="707" y="219"/>
      <point x="619" y="219" type="curve"/>
      <point x="535" y="219"/>
      <point x="492" y="268"/>
      <point x="492" y="459" type="curve"/>
      <point x="492" y="1082" type="line"/>
      <point x="114" y="1082" type="line"/>
      <point x="114" y="409" type="line"/>
      <point x="114" y="144"/>
      <point x="241" y="-20"/>
    </contour>
    <contour>
      <point x="635" y="1082" type="move" name="top"/>
    </contour>
    <contour>
      <point x="988" y="0" type="move" name="ogonek"/>
    </contour>
    <contour>
      <point x="645" y="0" type="move" name="bot"/>
    </contour>
  </outline>
</glyph>
<glyph name="w" format="1">
  <advance width="1538"/>
  <unicode hex="0077"/>
  <outline>
    <contour>
      <point x="1216" y="1082" type="line"/>
      <point x="1064" y="158" type="line"/>
      <point x="1140" y="158" type="line"/>
      <point x="953" y="1082" type="line"/>
      <point x="621" y="1082" type="line"/>
      <point x="402" y="159" type="line"/>
      <point x="473" y="159" type="line"/>
      <point x="347" y="1082" type="line"/>
      <point x="0" y="1082" type="line"/>
      <point x="253" y="-6" type="line"/>
      <point x="588" y="-6" type="line"/>
      <point x="827" y="866" type="line"/>
      <point x="753" y="866" type="line"/>
      <point x="919" y="-6" type="line"/>
      <point x="1271" y="-6" type="line"/>
      <point x="1534" y="1082" type="line"/>
    </contour>
    <contour>
      <point x="786" y="1082" type="move" name="top"/>
    </contour>
  </outline>
</glyph>
<glyph name="y" format="1">
  <advance width="1136"/>
  <unicode hex="0079"/>
  <outline>
    <contour>
      <point x="1158" y="1082" type="line"/>
      <point x="810" y="1082" type="line"/>
      <point x="520" y="368" type="line"/>
      <point x="424" y="236" type="line"/>
      <point x="166" y="-338" type="line"/>
      <point x="464" y="-457" type="line"/>
    </contour>
    <contour>
      <point x="652" y="330" type="line"/>
      <point x="329" y="1082" type="line"/>
      <point x="-36" y="1082" type="line"/>
      <point x="480" y="-30" type="line"/>
    </contour>
    <contour>
      <point x="549" y="1082" type="move" name="top"/>
    </contour>
  </outline>
</glyph>
<glyph name="z" format="1">
  <advance width="952"/>
  <unicode hex="007A"/>
  <outline>
    <contour>
      <point x="66" y="1082" type="line"/>
      <point x="59" y="862" type="line"/>
      <point x="574" y="862" type="line"/>
      <point x="527" y="914" type="line"/>
      <point x="62" y="177" type="line"/>
      <point x="62" y="0" type="line"/>
      <point x="922" y="0" type="line"/>
      <point x="930" y="229" type="line"/>
      <point x="408" y="229" type="line"/>
      <point x="452" y="172" type="line"/>
      <point x="901" y="882" type="line"/>
      <point x="901" y="1082" type="line"/>
    </contour>
    <contour>
      <point x="472" y="1082" type="move" name="top"/>
    </contour>
    <contour>
      <point x="511" y="0" type="move" name="bot"/>
    </contour>
  </outline>
</glyph>
<glyph name="braceleft" format="1">
  <advance width="970"/>
  <unicode hex="007B"/>
  <outline>
    <contour>
      <point x="838" y="-324" type="curve"/>
      <point x="838" y="-128" type="line"/>
      <point x="714" y="-124"/>
      <point x="653" y="-116"/>
      <point x="653" y="16" type="curve" smooth="yes"/>
      <point x="653" y="369" type="line" smooth="yes"/>
      <point x="653" y="471"/>
      <point x="639" y="604"/>
      <point x="453" y="641" type="curve"/>
      <point x="639" y="678"/>
      <point x="653" y="811"/>
      <point x="653" y="913" type="curve" smooth="yes"/>
      <point x="653" y="1266" type="line" smooth="yes"/>
      <point x="653" y="1398"/>
      <point x="714" y="1406"/>
      <point x="838" y="1410" type="curve"/>
      <point x="838" y="1606" type="line"/>
      <point x="652" y="1606"/>
      <point x="406" y="1583"/>
      <point x="406" y="1347" type="curve" smooth="yes"/>
      <point x="406" y="940" type="line" smooth="yes"/>
      <point x="406" y="848"/>
      <point x="396" y="750"/>
      <point x="188" y="750" type="curve"/>
      <point x="188" y="532" type="line"/>
      <point x="396" y="532"/>
      <point x="406" y="434"/>
      <point x="406" y="342" type="curve" smooth="yes"/>
      <point x="406" y="-65" type="line" smooth="yes"/>
      <point x="406" y="-301"/>
      <point x="652" y="-324"/>
    </contour>
  </outline>
</glyph>
<glyph name="bar" format="1">
  <advance width="744"/>
  <unicode hex="007C"/>
  <outline>
    <contour>
      <point x="272" y="1476" type="line"/>
      <point x="272" y="-531" type="line"/>
      <point x="484" y="-531" type="line"/>
      <point x="484" y="1476" type="line"/>
    </contour>
  </outline>
</glyph>
<glyph name="cent" format="1">
  <advance width="1134"/>
  <unicode hex="00A2"/>
  <outline>
    <contour>
      <point x="566" y="1360" type="line"/>
      <point x="567" y="1032" type="line"/>
      <point x="697" y="1032" type="line"/>
      <point x="717" y="1360" type="line"/>
    </contour>
    <contour>
      <point x="565" y="58" type="line"/>
      <point x="556" y="-296" type="line"/>
      <point x="694" y="-296" type="line"/>
      <point x="695" y="58" type="line"/>
    </contour>
    <component base="c"/>
  </outline>
</glyph>
<glyph name="currency" format="1">
  <advance width="1105"/>
  <unicode hex="00A4"/>
  <outline>
    <contour>
      <point x="796" y="1097" type="line"/>
      <point x="727" y="1150"/>
      <point x="650" y="1177"/>
      <point x="560" y="1177" type="curve" smooth="yes"/>
      <point x="473" y="1177"/>
      <point x="389" y="1144"/>
      <point x="323" y="1098" type="curve"/>
      <point x="148" y="1271" type="line"/>
      <point x="32" y="1156" type="line"/>
      <point x="212" y="979" type="line"/>
      <point x="171" y="909"/>
      <point x="146" y="833"/>
      <point x="146" y="748" type="curve" smooth="yes"/>
      <point x="146" y="663"/>
      <point x="173" y="582"/>
      <point x="212" y="517" type="curve"/>
      <point x="33" y="341" type="line"/>
      <point x="148" y="230" type="line"/>
      <point x="320" y="400" type="line"/>
      <point x="388" y="349"/>
      <point x="471" y="322"/>
      <point x="560" y="322" type="curve" smooth="yes"/>
      <point x="649" y="322"/>
      <point x="729" y="353"/>
      <point x="796" y="403" type="curve"/>
      <point x="977" y="229" type="line"/>
      <point x="1085" y="344" type="line"/>
      <point x="909" y="517" type="line"/>
      <point x="952" y="586"/>
      <point x="975" y="663"/>
      <point x="975" y="748" type="curve" smooth="yes"/>
      <point x="975" y="835"/>
      <point x="948" y="914"/>
      <point x="908" y="979" type="curve"/>
      <point x="1086" y="1155" type="line"/>
      <point x="977" y="1271" type="line"/>
    </contour>
    <contour>
      <point x="812" y="748" type="curve" smooth="yes"/>
      <point x="812" y="603"/>
      <point x="697" y="492"/>
      <point x="560" y="492" type="curve" smooth="yes"/>
      <point x="428" y="492"/>
      <point x="312" y="604"/>
      <point x="312" y="748" type="curve" smooth="yes"/>
      <point x="312" y="892"/>
      <point x="428" y="1007"/>
      <point x="560" y="1007" type="curve" smooth="yes"/>
      <point x="694" y="1007"/>
      <point x="812" y="892"/>
    </contour>
  </outline>
</glyph>
<glyph name="yen" format="1">
  <advance width="1346"/>
  <unicode hex="00A5"/>
  <outline>
    <contour>
      <point x="177" y="317" type="line"/>
      <point x="1141" y="317" type="line"/>
      <point x="1141" y="462" type="line"/>
      <point x="177" y="462" type="line"/>
    </contour>
    <contour>
      <point x="177" y="576" type="line"/>
      <point x="1141" y="576" type="line"/>
      <point x="1141" y="721" type="line"/>
      <point x="177" y="721" type="line"/>
    </contour>
    <component base="Y"/>
  </outline>
</glyph>
<glyph name="brokenbar" format="1">
  <advance width="773"/>
  <unicode hex="00A6"/>
  <outline>
    <contour>
      <point x="251" y="273" type="line"/>
      <point x="251" y="-407" type="line"/>
      <point x="486" y="-407" type="line"/>
      <point x="486" y="273" type="line"/>
    </contour>
    <contour>
      <point x="251" y="1427" type="line"/>
      <point x="251" y="747" type="line"/>
      <point x="486" y="747" type="line"/>
      <point x="486" y="1427" type="line"/>
    </contour>
  </outline>
</glyph>
<glyph name="dieresis" format="1">
  <advance width="1121"/>
  <unicode hex="00A8"/>
  <outline>
    <contour>
      <point x="288" y="1216" type="curve" smooth="yes"/>
      <point x="387" y="1216"/>
      <point x="449" y="1279"/>
      <point x="449" y="1380" type="curve" smooth="yes"/>
      <point x="449" y="1483"/>
      <point x="387" y="1547"/>
      <point x="288" y="1547" type="curve" smooth="yes"/>
      <point x="187" y="1547"/>
      <point x="124" y="1483"/>
      <point x="124" y="1380" type="curve" smooth="yes"/>
      <point x="124" y="1279"/>
      <point x="187" y="1216"/>
    </contour>
    <contour>
      <point x="815" y="1216" type="curve" smooth="yes"/>
      <point x="915" y="1216"/>
      <point x="977" y="1279"/>
      <point x="977" y="1380" type="curve" smooth="yes"/>
      <point x="977" y="1483"/>
      <point x="915" y="1547"/>
      <point x="815" y="1547" type="curve" smooth="yes"/>
      <point x="714" y="1547"/>
      <point x="650" y="1483"/>
      <point x="650" y="1380" type="curve" smooth="yes"/>
      <point x="650" y="1279"/>
      <point x="714" y="1216"/>
    </contour>
    <contour>
      <point x="554" y="1082" type="move" name="_top"/>
    </contour>
  </outline>
</glyph>
<glyph name="guillemotleft" format="1">
  <advance width="1053"/>
  <unicode hex="00AB"/>
  <outline>
    <contour>
      <point x="355" y="127" type="line"/>
      <point x="546" y="127" type="line"/>
      <point x="299" y="577" type="line"/>
      <point x="550" y="1026" type="line"/>
      <point x="357" y="1026" type="line"/>
      <point x="34" y="574" type="line"/>
    </contour>
    <contour>
      <point x="794" y="127" type="line"/>
      <point x="985" y="127" type="line"/>
      <point x="739" y="577" type="line"/>
      <point x="988" y="1026" type="line"/>
      <point x="795" y="1026" type="line"/>
      <point x="473" y="574" type="line"/>
    </contour>
  </outline>
</glyph>
<glyph name="registered" format="1">
  <advance width="1907"/>
  <unicode hex="00AE"/>
  <outline>
    <contour>
      <point x="599" y="325" type="line"/>
      <point x="778" y="325" type="line"/>
      <point x="778" y="706" type="line"/>
      <point x="843" y="706" type="line"/>
      <point x="1074" y="325" type="line"/>
      <point x="1283" y="325" type="line"/>
      <point x="1032" y="716" type="line"/>
      <point x="1186" y="759"/>
      <point x="1235" y="824"/>
      <point x="1235" y="942" type="curve" smooth="yes"/>
      <point x="1235" y="1152"/>
      <point x="1082" y="1185"/>
      <point x="878" y="1185" type="curve" smooth="yes"/>
      <point x="599" y="1185" type="line"/>
    </contour>
    <contour>
      <point x="777" y="823" type="line"/>
      <point x="777" y="1050" type="line"/>
      <point x="843" y="1050" type="line" smooth="yes"/>
      <point x="998" y="1050"/>
      <point x="1057" y="1060"/>
      <point x="1057" y="935" type="curve" smooth="yes"/>
      <point x="1057" y="839"/>
      <point x="989" y="823"/>
      <point x="848" y="823" type="curve" smooth="yes"/>
    </contour>
    <contour>
      <point x="900" y="106" type="curve" smooth="yes"/>
      <point x="562" y="106"/>
      <point x="292" y="384"/>
      <point x="292" y="729" type="curve" smooth="yes"/>
      <point x="292" y="1073"/>
      <point x="562" y="1350"/>
      <point x="900" y="1350" type="curve" smooth="yes"/>
      <point x="1238" y="1350"/>
      <point x="1508" y="1073"/>
      <point x="1508" y="729" type="curve" smooth="yes"/>
      <point x="1508" y="384"/>
      <point x="1238" y="106"/>
    </contour>
    <contour>
      <point x="900" y="-58" type="curve" smooth="yes"/>
      <point x="1338" y="-58"/>
      <point x="1688" y="291"/>
      <point x="1688" y="729" type="curve" smooth="yes"/>
      <point x="1688" y="1166"/>
      <point x="1338" y="1514"/>
      <point x="900" y="1514" type="curve" smooth="yes"/>
      <point x="462" y="1514"/>
      <point x="112" y="1166"/>
      <point x="112" y="729" type="curve" smooth="yes"/>
      <point x="112" y="291"/>
      <point x="462" y="-58"/>
    </contour>
  </outline>
</glyph>
<glyph name="macron" format="1">
  <advance width="1028"/>
  <unicode hex="00AF"/>
  <outline>
    <contour>
      <point x="148" y="1259" type="line"/>
      <point x="876" y="1259" type="line"/>
      <point x="876" y="1418" type="line"/>
      <point x="148" y="1418" type="line"/>
    </contour>
    <contour>
      <point x="504" y="1331" type="move" name="_mid"/>
    </contour>
    <contour>
      <point x="513" y="1082" type="move" name="_top"/>
    </contour>
  </outline>
</glyph>
<glyph name="degree" format="1">
  <advance width="823"/>
  <unicode hex="00B0"/>
  <outline>
    <contour>
      <point x="422" y="1063" type="curve" smooth="yes"/>
      <point x="349" y="1063"/>
      <point x="281" y="1115"/>
      <point x="281" y="1214" type="curve" smooth="yes"/>
      <point x="281" y="1308"/>
      <point x="349" y="1359"/>
      <point x="423" y="1359" type="curve" smooth="yes"/>
      <point x="491" y="1359"/>
      <point x="560" y="1308"/>
      <point x="560" y="1214" type="curve" smooth="yes"/>
      <point x="560" y="1114"/>
      <point x="493" y="1063"/>
    </contour>
    <contour>
      <point x="422" y="902" type="curve" smooth="yes"/>
      <point x="630" y="902"/>
      <point x="739" y="1058"/>
      <point x="739" y="1215" type="curve" smooth="yes"/>
      <point x="739" y="1376"/>
      <point x="626" y="1516"/>
      <point x="422" y="1516" type="curve" smooth="yes"/>
      <point x="214" y="1516"/>
      <point x="104" y="1376"/>
      <point x="104" y="1215" type="curve" smooth="yes"/>
      <point x="104" y="1057"/>
      <point x="210" y="902"/>
    </contour>
  </outline>
</glyph>
<glyph name="plusminus" format="1">
  <advance width="1136"/>
  <unicode hex="00B1"/>
  <outline>
    <contour>
      <point x="454" y="1239" type="line"/>
      <point x="454" y="882" type="line"/>
      <point x="101" y="882" type="line"/>
      <point x="101" y="641" type="line"/>
      <point x="454" y="641" type="line"/>
      <point x="454" y="277" type="line"/>
      <point x="699" y="277" type="line"/>
      <point x="699" y="641" type="line"/>
      <point x="1054" y="641" type="line"/>
      <point x="1054" y="882" type="line"/>
      <point x="700" y="882" type="line"/>
      <point x="700" y="1239" type="line"/>
    </contour>
    <contour>
      <point x="105" y="210" type="line"/>
      <point x="105" y="0" type="line"/>
      <point x="1044" y="0" type="line"/>
      <point x="1044" y="210" type="line"/>
    </contour>
  </outline>
</glyph>
<glyph name="uni00B2" format="1">
  <advance width="852"/>
  <unicode hex="00B2"/>
  <outline>
    <contour>
      <point x="157" y="588" type="line"/>
      <point x="720" y="588" type="line"/>
      <point x="740" y="753" type="line"/>
      <point x="455" y="753" type="line"/>
      <point x="588" y="871"/>
      <point x="522" y="792"/>
      <point x="626" y="895" type="curve" smooth="yes"/>
      <point x="691" y="962"/>
      <point x="740" y="1076"/>
      <point x="740" y="1186" type="curve" smooth="yes"/>
      <point x="740" y="1370"/>
      <point x="596" y="1476"/>
      <point x="461" y="1476" type="curve" smooth="yes"/>
      <point x="334" y="1476"/>
      <point x="234" y="1436"/>
      <point x="170" y="1346" type="curve"/>
      <point x="253" y="1208" type="line"/>
      <point x="294" y="1266"/>
      <point x="368" y="1297"/>
      <point x="436" y="1297" type="curve" smooth="yes"/>
      <point x="484" y="1297"/>
      <point x="543" y="1253"/>
      <point x="543" y="1181" type="curve" smooth="yes"/>
      <point x="543" y="1149"/>
      <point x="481" y="1067"/>
      <point x="471" y="1043" type="curve" smooth="yes"/>
      <point x="261" y="810"/>
      <point x="249" y="847"/>
      <point x="157" y="751" type="curve"/>
    </contour>
  </outline>
</glyph>
<glyph name="acute" format="1">
  <advance width="801"/>
  <unicode hex="00B4"/>
  <outline>
    <contour>
      <point x="406" y="1207" type="line"/>
      <point x="612" y="1207" type="line"/>
      <point x="955" y="1617" type="line"/>
      <point x="579" y="1617" type="line"/>
    </contour>
    <contour>
      <point x="514" y="1082" type="move" name="_top"/>
    </contour>
  </outline>
</glyph>
<glyph name="uni00B5" format="1">
  <advance width="1249"/>
  <unicode hex="00B5"/>
  <outline>
    <contour>
      <point x="102" y="598" type="line"/>
      <point x="102" y="-332" type="line"/>
      <point x="480" y="-332" type="line"/>
      <point x="480" y="598" type="line"/>
    </contour>
    <component base="u"/>
  </outline>
</glyph>
<glyph name="cedilla" format="1">
  <advance width="766"/>
  <unicode hex="00B8"/>
  <outline>
    <contour>
      <point x="458" y="-421" type="curve" smooth="yes"/>
      <point x="599" y="-421"/>
      <point x="713" y="-343"/>
      <point x="713" y="-207" type="curve" smooth="yes"/>
      <point x="713" y="-56"/>
      <point x="589" y="1"/>
      <point x="427" y="-60" type="curve"/>
      <point x="427" y="-134" type="line"/>
      <point x="507" y="-125"/>
      <point x="542" y="-149"/>
      <point x="542" y="-199" type="curve" smooth="yes"/>
      <point x="542" y="-254"/>
      <point x="479" y="-307"/>
      <point x="330" y="-259" type="curve"/>
      <point x="286" y="-384" type="line"/>
      <point x="344" y="-409"/>
      <point x="403" y="-421"/>
    </contour>
    <contour>
      <point x="526" y="24" type="move" name="_bot"/>
    </contour>
  </outline>
</glyph>
<glyph name="guillemotright" format="1">
  <advance width="1053"/>
  <unicode hex="00BB"/>
  <outline>
    <contour>
      <point x="248" y="127" type="line"/>
      <point x="574" y="583" type="line"/>
      <point x="255" y="1026" type="line"/>
      <point x="69" y="1026" type="line"/>
      <point x="309" y="573" type="line"/>
      <point x="53" y="127" type="line"/>
    </contour>
    <contour>
      <point x="668" y="127" type="line"/>
      <point x="998" y="583" type="line"/>
      <point x="679" y="1026" type="line"/>
      <point x="497" y="1026" type="line"/>
      <point x="730" y="573" type="line"/>
      <point x="477" y="127" type="line"/>
    </contour>
  </outline>
</glyph>
<glyph name="onequarter" format="1">
  <advance width="1590"/>
  <unicode hex="00BC"/>
  <outline>
    <contour>
      <point x="113" y="601" type="line"/>
      <point x="599" y="601" type="line"/>
      <point x="599" y="781" type="line"/>
      <point x="464" y="781" type="line"/>
      <point x="464" y="1510" type="line"/>
      <point x="302" y="1510" type="line"/>
      <point x="277" y="1500"/>
      <point x="149" y="1420"/>
      <point x="94" y="1394" type="curve"/>
      <point x="94" y="1215" type="line"/>
      <point x="92" y="1211"/>
      <point x="233" y="1273"/>
      <point x="270" y="1289" type="curve"/>
      <point x="270" y="781" type="line"/>
      <point x="113" y="781" type="line"/>
    </contour>
    <contour>
      <point x="1348" y="0" type="line"/>
      <point x="1527" y="0" type="line"/>
      <point x="1527" y="176" type="line"/>
      <point x="1620" y="176" type="line"/>
      <point x="1639" y="328" type="line"/>
      <point x="1526" y="328" type="line"/>
      <point x="1526" y="878" type="line"/>
      <point x="1338" y="878" type="line"/>
      <point x="987" y="336" type="line"/>
      <point x="987" y="176" type="line"/>
      <point x="1348" y="176" type="line"/>
    </contour>
    <contour>
      <point x="287" y="0" type="line"/>
      <point x="522" y="0" type="line"/>
      <point x="1526" y="1510" type="line"/>
      <point x="1300" y="1510" type="line"/>
    </contour>
    <contour>
      <point x="1185" y="328" type="line"/>
      <point x="1349" y="638" type="line"/>
      <point x="1349" y="328" type="line"/>
    </contour>
  </outline>
</glyph>
<glyph name="onehalf" format="1">
  <advance width="1982"/>
  <unicode hex="00BD"/>
  <outline>
    <contour>
      <point x="1296" y="0" type="line"/>
      <point x="1863" y="0" type="line"/>
      <point x="1869" y="156" type="line"/>
      <point x="1518" y="156" type="line"/>
      <point x="1706" y="318" type="line" smooth="yes"/>
      <point x="1831" y="425"/>
      <point x="1875" y="529"/>
      <point x="1875" y="606" type="curve" smooth="yes"/>
      <point x="1875" y="736"/>
      <point x="1805" y="886"/>
      <point x="1555" y="886" type="curve" smooth="yes"/>
      <point x="1396" y="886"/>
      <point x="1280" y="798"/>
      <point x="1214" y="718" type="curve"/>
      <point x="1214" y="718"/>
      <point x="1323" y="601"/>
      <point x="1323" y="601" type="curve"/>
      <point x="1376" y="666"/>
      <point x="1467" y="714"/>
      <point x="1548" y="714" type="curve" smooth="yes"/>
      <point x="1612" y="714"/>
      <point x="1662" y="673"/>
      <point x="1661" y="610" type="curve" smooth="yes"/>
      <point x="1661" y="565"/>
      <point x="1630" y="507"/>
      <point x="1579" y="458" type="curve" smooth="yes"/>
      <point x="1260" y="150" type="line"/>
    </contour>
    <contour>
      <point x="159" y="601" type="line"/>
      <point x="675" y="601" type="line"/>
      <point x="675" y="748" type="line"/>
      <point x="532" y="748" type="line"/>
      <point x="532" y="1512" type="line"/>
      <point x="370" y="1512" type="line"/>
      <point x="345" y="1500"/>
      <point x="205" y="1422"/>
      <point x="150" y="1394" type="curve"/>
      <point x="150" y="1245" type="line"/>
      <point x="151" y="1241"/>
      <point x="280" y="1303"/>
      <point x="317" y="1321" type="curve"/>
      <point x="317" y="748" type="line"/>
      <point x="159" y="748" type="line"/>
    </contour>
    <contour>
      <point x="403" y="0" type="line"/>
      <point x="618" y="0" type="line"/>
      <point x="1612" y="1512" type="line"/>
      <point x="1396" y="1512" type="line"/>
    </contour>
  </outline>
</glyph>
<glyph name="threequarters" format="1">
  <advance width="1715"/>
  <unicode hex="00BE"/>
  <outline>
    <contour>
      <point x="377" y="573" type="curve" smooth="yes"/>
      <point x="564" y="573"/>
      <point x="729" y="662"/>
      <point x="729" y="849" type="curve" smooth="yes"/>
      <point x="729" y="944"/>
      <point x="676" y="1039"/>
      <point x="574" y="1058" type="curve"/>
      <point x="679" y="1077"/>
      <point x="709" y="1164"/>
      <point x="711" y="1242" type="curve" smooth="yes"/>
      <point x="711" y="1410"/>
      <point x="575" y="1473"/>
      <point x="421" y="1473" type="curve" smooth="yes"/>
      <point x="310" y="1473"/>
      <point x="191" y="1441"/>
      <point x="102" y="1388" type="curve"/>
      <point x="162" y="1260" type="line"/>
      <point x="235" y="1300"/>
      <point x="317" y="1321"/>
      <point x="383" y="1321" type="curve" smooth="yes"/>
      <point x="466" y="1321"/>
      <point x="529" y="1291"/>
      <point x="529" y="1219" type="curve" smooth="yes"/>
      <point x="529" y="1162"/>
      <point x="518" y="1127"/>
      <point x="382" y="1127" type="curve" smooth="yes"/>
      <point x="258" y="1127" type="line"/>
      <point x="258" y="978" type="line"/>
      <point x="379" y="980" type="line" smooth="yes"/>
      <point x="504" y="982"/>
      <point x="550" y="931"/>
      <point x="550" y="858" type="curve" smooth="yes"/>
      <point x="550" y="766"/>
      <point x="465" y="727"/>
      <point x="369" y="727" type="curve" smooth="yes"/>
      <point x="293" y="727"/>
      <point x="210" y="753"/>
      <point x="155" y="795" type="curve"/>
      <point x="91" y="644" type="line"/>
      <point x="178" y="597"/>
      <point x="280" y="573"/>
    </contour>
    <contour>
      <point x="1467" y="0" type="line"/>
      <point x="1647" y="0" type="line"/>
      <point x="1647" y="176" type="line"/>
      <point x="1739" y="176" type="line"/>
      <point x="1759" y="328" type="line"/>
      <point x="1646" y="328" type="line"/>
      <point x="1646" y="878" type="line"/>
      <point x="1457" y="878" type="line"/>
      <point x="1106" y="336" type="line"/>
      <point x="1106" y="176" type="line"/>
      <point x="1467" y="176" type="line"/>
    </contour>
    <contour>
      <point x="407" y="0" type="line"/>
      <point x="642" y="0" type="line"/>
      <point x="1645" y="1510" type="line"/>
      <point x="1420" y="1510" type="line"/>
    </contour>
    <contour>
      <point x="1304" y="328" type="line"/>
      <point x="1468" y="638" type="line"/>
      <point x="1468" y="328" type="line"/>
    </contour>
  </outline>
</glyph>
<glyph name="multiply" format="1">
  <advance width="994"/>
  <unicode hex="00D7"/>
  <outline>
    <contour>
      <point x="90" y="777" type="line"/>
      <point x="349" y="503" type="line"/>
      <point x="92" y="237" type="line"/>
      <point x="240" y="72" type="line"/>
      <point x="505" y="341" type="line"/>
      <point x="767" y="75" type="line"/>
      <point x="919" y="238" type="line"/>
      <point x="919" y="238"/>
      <point x="738" y="422"/>
      <point x="660" y="503" type="curve"/>
      <point x="918" y="778" type="line"/>
      <point x="769" y="935" type="line"/>
      <point x="505" y="664" type="line"/>
      <point x="237" y="934" type="line"/>
    </contour>
  </outline>
</glyph>
<glyph name="Oslash" format="1">
  <advance width="1669"/>
  <unicode hex="00D8"/>
  <outline>
    <contour>
      <point x="398" y="-204" type="line"/>
      <point x="542" y="-257" type="line"/>
      <point x="1285" y="1677" type="line"/>
      <point x="1135" y="1735" type="line"/>
    </contour>
    <component base="O"/>
  </outline>
</glyph>
<glyph name="germandbls" format="1">
  <advance width="1343"/>
  <unicode hex="00DF"/>
  <outline>
    <contour>
      <point x="918" y="-20" type="curve" smooth="yes"/>
      <point x="1192" y="-20"/>
      <point x="1315" y="106"/>
      <point x="1315" y="330" type="curve" smooth="yes"/>
      <point x="1315" y="653"/>
      <point x="938" y="707"/>
      <point x="938" y="753" type="curve" smooth="yes"/>
      <point x="938" y="795"/>
      <point x="1156" y="864"/>
      <point x="1156" y="1097" type="curve" smooth="yes"/>
      <point x="1156" y="1347"/>
      <point x="928" y="1463"/>
      <point x="649" y="1463" type="curve" smooth="yes"/>
      <point x="345" y="1463"/>
      <point x="116" y="1283"/>
      <point x="116" y="987" type="curve" smooth="yes"/>
      <point x="116" y="-1" type="line"/>
      <point x="494" y="-1" type="line"/>
      <point x="494" y="941" type="line" smooth="yes"/>
      <point x="494" y="1099"/>
      <point x="542" y="1204"/>
      <point x="672" y="1204" type="curve" smooth="yes"/>
      <point x="752" y="1204"/>
      <point x="811" y="1178"/>
      <point x="811" y="1094" type="curve" smooth="yes"/>
      <point x="811" y="933"/>
      <point x="646" y="895"/>
      <point x="646" y="721" type="curve" smooth="yes"/>
      <point x="646" y="529"/>
      <point x="913" y="521"/>
      <point x="913" y="339" type="curve" smooth="yes"/>
      <point x="913" y="259"/>
      <point x="865" y="232"/>
      <point x="801" y="232" type="curve" smooth="yes"/>
      <point x="743" y="232"/>
      <point x="672" y="257"/>
      <point x="638" y="276" type="curve"/>
      <point x="571" y="50" type="line"/>
      <point x="702" y="-1"/>
      <point x="825" y="-20"/>
    </contour>
  </outline>
</glyph>
<glyph name="ae" format="1">
  <advance width="1763"/>
  <unicode hex="00E6"/>
  <outline>
    <contour>
      <point x="1232" y="-20" type="curve" smooth="yes"/>
      <point x="1418" y="-20"/>
      <point x="1585" y="36"/>
      <point x="1668" y="117" type="curve"/>
      <point x="1668" y="117"/>
      <point x="1610" y="316"/>
      <point x="1610" y="316" type="curve"/>
      <point x="1527" y="263"/>
      <point x="1413" y="217"/>
      <point x="1274" y="217" type="curve" smooth="yes"/>
      <point x="1173" y="217"/>
      <point x="1051" y="228"/>
      <point x="1026" y="420" type="curve"/>
      <point x="1424" y="420"/>
      <point x="1680" y="486"/>
      <point x="1680" y="713" type="curve" smooth="yes"/>
      <point x="1680" y="877"/>
      <point x="1571" y="1102"/>
      <point x="1250" y="1102" type="curve" smooth="yes"/>
      <point x="1072" y="1102"/>
      <point x="966" y="1033"/>
      <point x="899" y="937" type="curve"/>
      <point x="865" y="1035"/>
      <point x="748" y="1100"/>
      <point x="586" y="1100" type="curve" smooth="yes"/>
      <point x="436" y="1100"/>
      <point x="268" y="1056"/>
      <point x="109" y="979" type="curve"/>
      <point x="176" y="759" type="line"/>
      <point x="299" y="806"/>
      <point x="423" y="841"/>
      <point x="518" y="841" type="curve" smooth="yes"/>
      <point x="618" y="841"/>
      <point x="703" y="802"/>
      <point x="703" y="697" type="curve" smooth="yes"/>
      <point x="703" y="629" type="line"/>
      <point x="551" y="630" type="line" smooth="yes"/>
      <point x="343" y="631"/>
      <point x="69" y="568"/>
      <point x="69" y="306" type="curve" smooth="yes"/>
      <point x="69" y="85"/>
      <point x="209" y="-16"/>
      <point x="416" y="-16" type="curve" smooth="yes"/>
      <point x="609" y="-16"/>
      <point x="752" y="40"/>
      <point x="837" y="133" type="curve"/>
      <point x="911" y="54"/>
      <point x="999" y="-20"/>
    </contour>
    <contour>
      <point x="538" y="183" type="curve" smooth="yes"/>
      <point x="471" y="176"/>
      <point x="399" y="217"/>
      <point x="402" y="317" type="curve" smooth="yes"/>
      <point x="404" y="435"/>
      <point x="519" y="464"/>
      <point x="632" y="464" type="curve" smooth="yes"/>
      <point x="707" y="464" type="line"/>
      <point x="707" y="432"/>
      <point x="731" y="314"/>
      <point x="750" y="273" type="curve"/>
      <point x="726" y="247"/>
      <point x="666" y="197"/>
    </contour>
    <contour>
      <point x="1028" y="617" type="curve"/>
      <point x="1039" y="809"/>
      <point x="1164" y="875"/>
      <point x="1257" y="875" type="curve" smooth="yes"/>
      <point x="1413" y="875"/>
      <point x="1443" y="807"/>
      <point x="1441" y="741" type="curve" smooth="yes"/>
      <point x="1439" y="665"/>
      <point x="1370" y="617"/>
    </contour>
    <contour>
      <point x="1227" y="1082" type="move" name="top"/>
    </contour>
    <contour>
      <point x="1416" y="0" type="move" name="ogonek"/>
    </contour>
    <contour>
      <point x="1263" y="0" type="move" name="bot"/>
    </contour>
  </outline>
</glyph>
<glyph name="eth" format="1">
  <advance width="1160"/>
  <unicode hex="00F0"/>
  <outline>
    <contour>
      <point x="153" y="1480" type="line"/>
      <point x="353" y="1275" type="line"/>
      <point x="192" y="1206" type="line"/>
      <point x="262" y="1006" type="line"/>
      <point x="501" y="1102" type="line"/>
      <point x="511" y="1091"/>
      <point x="613" y="983"/>
      <point x="653" y="939" type="curve"/>
      <point x="621" y="943"/>
      <point x="559" y="946"/>
      <point x="539" y="946" type="curve" smooth="yes"/>
      <point x="246" y="946"/>
      <point x="53" y="757"/>
      <point x="53" y="473" type="curve" smooth="yes"/>
      <point x="53" y="174"/>
      <point x="278" y="-24"/>
      <point x="592" y="-24" type="curve" smooth="yes"/>
      <point x="909" y="-24"/>
      <point x="1122" y="148"/>
      <point x="1122" y="463" type="curve" smooth="yes"/>
      <point x="1120" y="611"/>
      <point x="1080" y="740"/>
      <point x="1016" y="845" type="curve" smooth="yes"/>
      <point x="936" y="978"/>
      <point x="826" y="1090"/>
      <point x="733" y="1204" type="curve"/>
      <point x="925" y="1284" type="line"/>
      <point x="852" y="1489" type="line"/>
      <point x="592" y="1380" type="line"/>
      <point x="494" y="1480" type="line"/>
    </contour>
    <contour>
      <point x="863" y="468" type="curve" smooth="yes"/>
      <point x="863" y="311"/>
      <point x="766" y="208"/>
      <point x="598" y="208" type="curve" smooth="yes"/>
      <point x="427" y="208"/>
      <point x="325" y="316"/>
      <point x="325" y="476" type="curve" smooth="yes"/>
      <point x="325" y="642"/>
      <point x="417" y="741"/>
      <point x="592" y="741" type="curve" smooth="yes"/>
      <point x="763" y="741"/>
      <point x="863" y="635"/>
    </contour>
  </outline>
</glyph>
<glyph name="divide" format="1">
  <advance width="1284"/>
  <unicode hex="00F7"/>
  <outline>
    <contour>
      <point x="80" y="708" type="line"/>
      <point x="80" y="488" type="line"/>
      <point x="1176" y="488" type="line"/>
      <point x="1176" y="708" type="line"/>
    </contour>
    <contour>
      <point x="478" y="322" type="line"/>
      <point x="478" y="17" type="line"/>
      <point x="778" y="17" type="line"/>
      <point x="778" y="322" type="line"/>
    </contour>
    <contour>
      <point x="478" y="1174" type="line"/>
      <point x="478" y="884" type="line"/>
      <point x="788" y="884" type="line"/>
      <point x="788" y="1174" type="line"/>
    </contour>
  </outline>
</glyph>
<glyph name="oslash" format="1">
  <advance width="1259"/>
  <unicode hex="00F8"/>
  <outline>
    <contour>
      <point x="237" y="-126" type="line"/>
      <point x="315" y="-179" type="line"/>
      <point x="1059" y="1210" type="line"/>
      <point x="975" y="1263" type="line"/>
    </contour>
    <component base="o"/>
  </outline>
</glyph>
<glyph name="thorn" format="1">
  <advance width="1101"/>
  <unicode hex="00FE"/>
  <outline>
    <contour>
      <point x="188" y="602" type="line"/>
      <point x="188" y="-423" type="line"/>
      <point x="561" y="-423" type="line"/>
      <point x="561" y="602" type="line"/>
    </contour>
    <component base="b" xOffset="71"/>
  </outline>
</glyph>
<glyph name="dotlessi" format="1">
  <advance width="624"/>
  <unicode hex="0131"/>
  <outline>
    <contour>
      <point x="128" y="1082" type="line"/>
      <point x="128" y="0" type="line"/>
      <point x="506" y="0" type="line"/>
      <point x="506" y="1082" type="line"/>
    </contour>
    <contour>
      <point x="321" y="1082" type="move" name="top"/>
    </contour>
    <contour>
      <point x="348" y="0" type="move" name="ogonek"/>
    </contour>
  </outline>
</glyph>
<glyph name="eng" format="1">
  <advance width="1249"/>
  <unicode hex="014B"/>
  <outline>
    <contour>
      <point x="769" y="188" type="line"/>
      <point x="769" y="-19" type="line" smooth="yes"/>
      <point x="769" y="-250"/>
      <point x="736" y="-279"/>
      <point x="526" y="-279" type="curve"/>
      <point x="554" y="-512" type="line"/>
      <point x="1016" y="-493"/>
      <point x="1147" y="-364"/>
      <point x="1147" y="-62" type="curve" smooth="yes"/>
      <point x="1147" y="188" type="line"/>
    </contour>
    <component base="n"/>
  </outline>
</glyph>
<glyph name="OE" format="1">
  <advance width="2220"/>
  <unicode hex="0152"/>
  <outline>
    <contour>
      <point x="65" y="729" type="curve" smooth="yes"/>
      <point x="65" y="246"/>
      <point x="320" y="-16"/>
      <point x="743" y="-16" type="curve" smooth="yes"/>
      <point x="898" y="-16"/>
      <point x="993" y="5"/>
      <point x="1079" y="49" type="curve"/>
      <point x="1079" y="0" type="line"/>
      <point x="2073" y="0" type="line"/>
      <point x="2077" y="259" type="line"/>
      <point x="1389" y="259" type="line"/>
      <point x="1389" y="619" type="line"/>
      <point x="2021" y="619" type="line"/>
      <point x="2021" y="870" type="line"/>
      <point x="1389" y="870" type="line"/>
      <point x="1389" y="1206" type="line"/>
      <point x="2037" y="1206" type="line"/>
      <point x="2057" y="1456" type="line"/>
      <point x="1079" y="1456" type="line"/>
      <point x="1079" y="1417" type="line"/>
      <point x="993" y="1463"/>
      <point x="900" y="1484"/>
      <point x="742" y="1484" type="curve" smooth="yes"/>
      <point x="319" y="1484"/>
      <point x="65" y="1220"/>
    </contour>
    <contour>
      <point x="1078" y="728" type="curve" smooth="yes"/>
      <point x="1078" y="434"/>
      <point x="972" y="256"/>
      <point x="744" y="256" type="curve" smooth="yes"/>
      <point x="515" y="256"/>
      <point x="404" y="434"/>
      <point x="404" y="728" type="curve" smooth="yes"/>
      <point x="404" y="1028"/>
      <point x="515" y="1212"/>
      <point x="743" y="1212" type="curve" smooth="yes"/>
      <point x="973" y="1212"/>
      <point x="1078" y="1028"/>
    </contour>
  </outline>
</glyph>
<glyph name="oe" format="1">
  <advance width="1837"/>
  <unicode hex="0153"/>
  <outline>
    <contour>
      <point x="1637" y="300" type="line"/>
      <point x="1610" y="259"/>
      <point x="1485" y="213"/>
      <point x="1377" y="211" type="curve" smooth="yes"/>
      <point x="1272" y="209"/>
      <point x="1118" y="236"/>
      <point x="1081" y="426" type="curve"/>
      <point x="1730" y="426" type="line"/>
      <point x="1730" y="426"/>
      <point x="1739" y="473"/>
      <point x="1738" y="568" type="curve" smooth="yes"/>
      <point x="1728" y="878"/>
      <point x="1593" y="1087"/>
      <point x="1302" y="1096" type="curve" smooth="yes"/>
      <point x="1157" y="1100"/>
      <point x="1013" y="1006"/>
      <point x="937" y="913" type="curve"/>
      <point x="864" y="1004"/>
      <point x="716" y="1096"/>
      <point x="567" y="1096" type="curve" smooth="yes"/>
      <point x="261" y="1096"/>
      <point x="57" y="878"/>
      <point x="57" y="544" type="curve" smooth="yes"/>
      <point x="57" y="204"/>
      <point x="259" y="-16"/>
      <point x="567" y="-16" type="curve" smooth="yes"/>
      <point x="715" y="-16"/>
      <point x="851" y="64"/>
      <point x="934" y="153" type="curve"/>
      <point x="1032" y="50"/>
      <point x="1196" y="-25"/>
      <point x="1379" y="-16" type="curve" smooth="yes"/>
      <point x="1549" y="-7"/>
      <point x="1680" y="51"/>
      <point x="1730" y="113" type="curve"/>
      <point x="1651" y="300" type="line"/>
    </contour>
    <contour>
      <point x="567" y="211" type="curve" smooth="yes"/>
      <point x="419" y="211"/>
      <point x="345" y="311"/>
      <point x="345" y="545" type="curve" smooth="yes"/>
      <point x="345" y="773"/>
      <point x="418" y="869"/>
      <point x="567" y="869" type="curve" smooth="yes"/>
      <point x="715" y="869"/>
      <point x="788" y="773"/>
      <point x="788" y="545" type="curve" smooth="yes"/>
      <point x="788" y="311"/>
      <point x="714" y="211"/>
    </contour>
    <contour>
      <point x="1086" y="614" type="line"/>
      <point x="1094" y="810"/>
      <point x="1206" y="878"/>
      <point x="1297" y="881" type="curve" smooth="yes"/>
      <point x="1400" y="885"/>
      <point x="1469" y="828"/>
      <point x="1482" y="614" type="curve"/>
    </contour>
  </outline>
</glyph>
<glyph name="florin" format="1">
  <advance width="1222"/>
  <unicode hex="0192"/>
  <outline>
    <contour>
      <point x="432" y="1277" type="curve" smooth="yes"/>
      <point x="392" y="1017" type="line"/>
      <point x="161" y="1017" type="line"/>
      <point x="146" y="946" type="line"/>
      <point x="382" y="946" type="line"/>
      <point x="260" y="100" type="line" smooth="yes"/>
      <point x="206" y="-277"/>
      <point x="169" y="-294"/>
      <point x="-121" y="-241" type="curve"/>
      <point x="-154" y="-363" type="line"/>
      <point x="248" y="-514"/>
      <point x="470" y="-407"/>
      <point x="557" y="112" type="curve" smooth="yes"/>
      <point x="680" y="946" type="line"/>
      <point x="1017" y="946" type="line"/>
      <point x="1032" y="1017" type="line"/>
      <point x="696" y="1017" type="line"/>
      <point x="750" y="1334" type="line" smooth="yes"/>
      <point x="777" y="1490"/>
      <point x="853" y="1544"/>
      <point x="942" y="1551" type="curve" smooth="yes"/>
      <point x="1099" y="1564"/>
      <point x="1130" y="1458"/>
      <point x="1150" y="1309" type="curve"/>
      <point x="1307" y="1309" type="line"/>
      <point x="1296" y="1569"/>
      <point x="1196" y="1748"/>
      <point x="931" y="1748" type="curve" smooth="yes"/>
      <point x="660" y="1748"/>
      <point x="481" y="1596"/>
    </contour>
  </outline>
</glyph>
<glyph name="apostrophemod" format="1">
  <advance width="650"/>
  <unicode hex="02BC"/>
  <outline>
    <contour>
      <point x="41" y="1079" type="curve"/>
      <point x="298" y="1079" type="line"/>
      <point x="298" y="1079"/>
      <point x="392" y="1631"/>
      <point x="392" y="1553" type="curve"/>
      <point x="91" y="1553" type="line"/>
      <point x="91" y="1636"/>
      <point x="41" y="1079"/>
    </contour>
  </outline>
</glyph>
<glyph name="circumflex" format="1">
  <advance width="937"/>
  <unicode hex="02C6"/>
  <outline>
    <contour>
      <point x="109" y="1311" type="line"/>
      <point x="322" y="1311" type="line"/>
      <point x="451" y="1497" type="line"/>
      <point x="580" y="1311" type="line"/>
      <point x="793" y="1311" type="line"/>
      <point x="569" y="1642" type="line"/>
      <point x="333" y="1642" type="line"/>
    </contour>
    <contour>
      <point x="449" y="1082" type="move" name="_top"/>
    </contour>
  </outline>
</glyph>
<glyph name="caron" format="1">
  <advance width="965"/>
  <unicode hex="02C7"/>
  <outline>
    <contour>
      <point x="295" y="1311" type="line"/>
      <point x="611" y="1311" type="line"/>
      <point x="825" y="1712" type="line"/>
      <point x="542" y="1712" type="line"/>
      <point x="454" y="1506" type="line"/>
      <point x="364" y="1712" type="line"/>
      <point x="81" y="1712" type="line"/>
    </contour>
    <contour>
      <point x="470" y="1082" type="move" name="_top"/>
    </contour>
  </outline>
</glyph>
<glyph name="breve" format="1">
  <advance width="943"/>
  <unicode hex="02D8"/>
  <outline>
    <contour>
      <point x="449" y="1324" type="curve" smooth="yes"/>
      <point x="635" y="1324"/>
      <point x="751" y="1431"/>
      <point x="751" y="1601" type="curve"/>
      <point x="555" y="1601" type="line"/>
      <point x="555" y="1548"/>
      <point x="514" y="1514"/>
      <point x="449" y="1514" type="curve" smooth="yes"/>
      <point x="384" y="1514"/>
      <point x="343" y="1548"/>
      <point x="343" y="1601" type="curve"/>
      <point x="144" y="1601" type="line"/>
      <point x="144" y="1431"/>
      <point x="262" y="1324"/>
    </contour>
    <contour>
      <point x="449" y="1082" type="move" name="_top"/>
    </contour>
  </outline>
</glyph>
<glyph name="dotaccent" format="1">
  <advance width="655"/>
  <unicode hex="02D9"/>
  <outline>
    <contour>
      <point x="541" y="1462" type="curve" smooth="yes"/>
      <point x="541" y="1576"/>
      <point x="460" y="1653"/>
      <point x="332" y="1653" type="curve" smooth="yes"/>
      <point x="204" y="1653"/>
      <point x="123" y="1576"/>
      <point x="123" y="1462" type="curve" smooth="yes"/>
      <point x="123" y="1342"/>
      <point x="204" y="1263"/>
      <point x="332" y="1263" type="curve" smooth="yes"/>
      <point x="460" y="1263"/>
      <point x="541" y="1342"/>
    </contour>
    <contour>
      <point x="330.0" y="1082.0" type="move" name="_top"/>
    </contour>
  </outline>
</glyph>
<glyph name="ring" format="1">
  <advance width="827"/>
  <unicode hex="02DA"/>
  <outline>
    <contour>
      <point x="389" y="1431" type="curve" smooth="yes"/>
      <point x="325" y="1431"/>
      <point x="300" y="1479"/>
      <point x="300" y="1537" type="curve" smooth="yes"/>
      <point x="300" y="1589"/>
      <point x="330" y="1643"/>
      <point x="389" y="1643" type="curve" smooth="yes"/>
      <point x="450" y="1643"/>
      <point x="483" y="1589"/>
      <point x="483" y="1537" type="curve" smooth="yes"/>
      <point x="483" y="1481"/>
      <point x="450" y="1431"/>
    </contour>
    <contour>
      <point x="389" y="1312" type="curve" smooth="yes"/>
      <point x="535" y="1312"/>
      <point x="623" y="1421"/>
      <point x="623" y="1538" type="curve" smooth="yes"/>
      <point x="623" y="1654"/>
      <point x="538" y="1761"/>
      <point x="389" y="1761" type="curve" smooth="yes"/>
      <point x="243" y="1761"/>
      <point x="159" y="1656"/>
      <point x="159" y="1538" type="curve" smooth="yes"/>
      <point x="159" y="1421"/>
      <point x="244" y="1312"/>
    </contour>
    <contour>
      <point x="387" y="1082" type="move" name="_top"/>
    </contour>
  </outline>
</glyph>
<glyph name="tilde" format="1">
  <advance width="969"/>
  <unicode hex="02DC"/>
  <outline>
    <contour>
      <point x="145" y="1251" type="curve"/>
      <point x="292" y="1251" type="line"/>
      <point x="310" y="1324"/>
      <point x="333" y="1350"/>
      <point x="368" y="1350" type="curve" smooth="yes"/>
      <point x="434" y="1350"/>
      <point x="530" y="1251"/>
      <point x="644" y="1251" type="curve" smooth="yes"/>
      <point x="805" y="1251"/>
      <point x="849" y="1415"/>
      <point x="849" y="1526" type="curve"/>
      <point x="702" y="1526" type="line"/>
      <point x="686" y="1465"/>
      <point x="667" y="1445"/>
      <point x="640" y="1445" type="curve" smooth="yes"/>
      <point x="585" y="1445"/>
      <point x="502" y="1527"/>
      <point x="361" y="1527" type="curve" smooth="yes"/>
      <point x="190" y="1527"/>
      <point x="145" y="1371"/>
    </contour>
    <contour>
      <point x="484" y="1082" type="move" name="_top"/>
    </contour>
  </outline>
</glyph>
<glyph name="hungarumlaut" format="1">
  <advance width="1000"/>
  <unicode hex="02DD"/>
  <outline>
    <contour>
      <point x="118" y="1260" type="line"/>
      <point x="297" y="1260" type="line"/>
      <point x="560" y="1670" type="line"/>
      <point x="278" y="1670" type="line"/>
    </contour>
    <contour>
      <point x="506" y="1260" type="line"/>
      <point x="674" y="1260" type="line"/>
      <point x="959" y="1670" type="line"/>
      <point x="651" y="1670" type="line"/>
    </contour>
    <contour>
      <point x="408" y="1082" type="move" name="_top"/>
    </contour>
  </outline>
</glyph>
<glyph name="uni0307" format="1">
  <advance width="655"/>
  <unicode hex="0307"/>
  <outline>
    <contour>
      <point x="527" y="1456" type="curve" smooth="yes"/>
      <point x="527" y="1565"/>
      <point x="451" y="1634"/>
      <point x="330" y="1634" type="curve" smooth="yes"/>
      <point x="209" y="1634"/>
      <point x="132" y="1565"/>
      <point x="132" y="1456" type="curve" smooth="yes"/>
      <point x="132" y="1342"/>
      <point x="209" y="1271"/>
      <point x="330" y="1271" type="curve" smooth="yes"/>
      <point x="451" y="1271"/>
      <point x="527" y="1342"/>
    </contour>
  </outline>
</glyph>
<glyph name="dblgravecomb" format="1">
  <advance width="1129"/>
  <unicode hex="030F"/>
  <outline>
    <contour>
      <point x="323" y="1260" type="line"/>
      <point x="491" y="1260" type="line"/>
      <point x="346" y="1670" type="line"/>
      <point x="38" y="1670" type="line"/>
    </contour>
    <contour>
      <point x="700" y="1260" type="line"/>
      <point x="879" y="1260" type="line"/>
      <point x="719" y="1670" type="line"/>
      <point x="437" y="1670" type="line"/>
    </contour>
    <contour>
      <point x="589" y="1082" type="move" name="_top"/>
    </contour>
  </outline>
</glyph>
<glyph name="breveinvertedcomb" format="1">
  <advance width="880"/>
  <unicode hex="0311"/>
  <outline>
    <contour>
      <point x="144" y="1324" type="curve"/>
      <point x="343" y="1324" type="line"/>
      <point x="343" y="1377"/>
      <point x="384" y="1411"/>
      <point x="449" y="1411" type="curve" smooth="yes"/>
      <point x="514" y="1411"/>
      <point x="555" y="1377"/>
      <point x="555" y="1324" type="curve"/>
      <point x="751" y="1324" type="line"/>
      <point x="751" y="1494"/>
      <point x="635" y="1601"/>
      <point x="449" y="1601" type="curve" smooth="yes"/>
      <point x="262" y="1601"/>
      <point x="144" y="1494"/>
    </contour>
    <contour>
      <point x="451" y="1082" type="move" name="_top"/>
    </contour>
  </outline>
</glyph>
<glyph name="Delta" format="1">
  <advance width="1334"/>
  <unicode hex="0394"/>
  <outline>
    <contour>
      <point x="15" y="0" type="line"/>
      <point x="1280" y="0" type="line"/>
      <point x="774" y="1532" type="line"/>
      <point x="522" y="1532" type="line"/>
    </contour>
    <contour>
      <point x="334" y="217" type="line"/>
      <point x="647" y="1244" type="line"/>
      <point x="967" y="217" type="line"/>
    </contour>
  </outline>
</glyph>
<glyph name="pi" format="1">
  <advance width="1495"/>
  <unicode hex="03C0"/>
  <outline>
    <contour>
      <point x="1150" y="-13" type="curve" smooth="yes"/>
      <point x="1227" y="-13"/>
      <point x="1291" y="11"/>
      <point x="1324" y="43" type="curve"/>
      <point x="1324" y="169" type="line"/>
      <point x="1297" y="160"/>
      <point x="1281" y="165"/>
      <point x="1241" y="165" type="curve" smooth="yes"/>
      <point x="1197" y="165"/>
      <point x="1143" y="133"/>
      <point x="1143" y="126" type="curve" smooth="yes"/>
      <point x="1143" y="227"/>
      <point x="1144" y="586"/>
      <point x="1151" y="801" type="curve"/>
      <point x="1385" y="801" type="line"/>
      <point x="1385" y="1048" type="line"/>
      <point x="508" y="1048" type="line" smooth="yes"/>
      <point x="275" y="1048"/>
      <point x="202" y="886"/>
      <point x="202" y="672" type="curve"/>
      <point x="296" y="672" type="line"/>
      <point x="308" y="748"/>
      <point x="347" y="801"/>
      <point x="425" y="801" type="curve" smooth="yes"/>
      <point x="485" y="801" type="line"/>
      <point x="422" y="382" type="line" smooth="yes"/>
      <point x="390" y="170"/>
      <point x="256" y="109"/>
      <point x="214" y="109" type="curve"/>
      <point x="214" y="4" type="line"/>
      <point x="554" y="4"/>
      <point x="621" y="104"/>
      <point x="633" y="318" type="curve" smooth="yes"/>
      <point x="659" y="801" type="line"/>
      <point x="971" y="801" type="line"/>
      <point x="929" y="618"/>
      <point x="905" y="285"/>
      <point x="905" y="171" type="curve" smooth="yes"/>
      <point x="905" y="-5"/>
      <point x="1037" y="-13"/>
    </contour>
  </outline>
</glyph>
<glyph name="endash" format="1">
  <advance width="1156"/>
  <unicode hex="2013"/>
  <outline>
    <contour>
      <point x="122" y="432" type="line"/>
      <point x="992" y="432" type="line"/>
      <point x="992" y="667" type="line"/>
      <point x="122" y="667" type="line"/>
    </contour>
  </outline>
</glyph>
<glyph name="emdash" format="1">
  <advance width="3395"/>
  <unicode hex="2014"/>
  <outline>
    <contour>
      <point x="675" y="443" type="line"/>
      <point x="2806" y="443" type="line"/>
      <point x="2806" y="660" type="line"/>
      <point x="675" y="660" type="line"/>
    </contour>
  </outline>
</glyph>
<glyph name="quoteleft" format="1">
  <advance width="831"/>
  <unicode hex="2018"/>
  <outline>
    <contour>
      <point x="409" y="970" type="line"/>
      <point x="449" y="1466" type="line"/>
      <point x="252" y="1466" type="line"/>
      <point x="190" y="970" type="line"/>
    </contour>
  </outline>
</glyph>
<glyph name="quoteright" format="1">
  <advance width="712"/>
  <unicode hex="2019"/>
  <outline>
    <contour>
      <point x="194" y="973" type="line"/>
      <point x="374" y="973" type="line"/>
      <point x="539" y="1469" type="line"/>
      <point x="289" y="1469" type="line"/>
    </contour>
  </outline>
</glyph>
<glyph name="quotesinglbase" format="1">
  <advance width="653"/>
  <unicode hex="201A"/>
  <outline>
    <contour>
      <point x="169" y="-115" type="line"/>
      <point x="340" y="-115" type="line"/>
      <point x="458" y="335" type="line"/>
      <point x="275" y="335" type="line"/>
    </contour>
  </outline>
</glyph>
<glyph name="quotedblleft" format="1">
  <advance width="876"/>
  <unicode hex="201C"/>
  <outline>
    <contour>
      <point x="55" y="970" type="line"/>
      <point x="303" y="970" type="line"/>
      <point x="388" y="1476" type="line"/>
      <point x="195" y="1476" type="line"/>
    </contour>
    <contour>
      <point x="409" y="972" type="line"/>
      <point x="651" y="972" type="line"/>
      <point x="725" y="1476" type="line"/>
      <point x="522" y="1476" type="line"/>
    </contour>
  </outline>
</glyph>
<glyph name="quotedblright" format="1">
  <advance width="880"/>
  <unicode hex="201D"/>
  <outline>
    <contour>
      <point x="123" y="856" type="line"/>
      <point x="326" y="856" type="line"/>
      <point x="443" y="1471" type="line"/>
      <point x="200" y="1471" type="line"/>
    </contour>
    <contour>
      <point x="443" y="856" type="line"/>
      <point x="636" y="856" type="line"/>
      <point x="780" y="1471" type="line"/>
      <point x="530" y="1471" type="line"/>
    </contour>
  </outline>
</glyph>
<glyph name="quotedblbase" format="1">
  <advance width="973"/>
  <unicode hex="201E"/>
  <outline>
    <contour>
      <point x="89" y="-252" type="line"/>
      <point x="292" y="-252" type="line"/>
      <point x="469" y="265" type="line"/>
      <point x="207" y="265" type="line"/>
    </contour>
    <contour>
      <point x="440" y="-252" type="line"/>
      <point x="649" y="-252" type="line"/>
      <point x="822" y="265" type="line"/>
      <point x="563" y="265" type="line"/>
    </contour>
  </outline>
</glyph>
<glyph name="dagger" format="1">
  <advance width="1170"/>
  <unicode hex="2020"/>
  <outline>
    <contour>
      <point x="410" y="1456" type="line"/>
      <point x="410" y="1082" type="line"/>
      <point x="102" y="1082" type="line"/>
      <point x="102" y="864" type="line"/>
      <point x="410" y="864" type="line"/>
      <point x="410" y="-130" type="line"/>
      <point x="752" y="-130" type="line"/>
      <point x="752" y="864" type="line"/>
      <point x="1083" y="864" type="line"/>
      <point x="1083" y="1082" type="line"/>
      <point x="761" y="1082" type="line"/>
      <point x="761" y="1456" type="line"/>
    </contour>
  </outline>
</glyph>
<glyph name="daggerdbl" format="1">
  <advance width="1142"/>
  <unicode hex="2021"/>
  <outline>
    <contour>
      <point x="410" y="1456" type="line"/>
      <point x="410" y="1082" type="line"/>
      <point x="102" y="1082" type="line"/>
      <point x="102" y="864" type="line"/>
      <point x="410" y="864" type="line"/>
      <point x="410" y="572" type="line"/>
      <point x="102" y="572" type="line"/>
      <point x="102" y="354" type="line"/>
      <point x="410" y="354" type="line"/>
      <point x="410" y="-179" type="line"/>
      <point x="752" y="-179" type="line"/>
      <point x="752" y="354" type="line"/>
      <point x="1083" y="354" type="line"/>
      <point x="1083" y="572" type="line"/>
      <point x="761" y="572" type="line"/>
      <point x="761" y="864" type="line"/>
      <point x="1083" y="864" type="line"/>
      <point x="1083" y="1082" type="line"/>
      <point x="761" y="1082" type="line"/>
      <point x="761" y="1456" type="line"/>
    </contour>
  </outline>
</glyph>
<glyph name="bullet" format="1">
  <advance width="969"/>
  <unicode hex="2022"/>
  <outline>
    <contour>
      <point x="472" y="342" type="curve" smooth="yes"/>
      <point x="679" y="342"/>
      <point x="834" y="500"/>
      <point x="834" y="695" type="curve" smooth="yes"/>
      <point x="834" y="892"/>
      <point x="685" y="1043"/>
      <point x="479" y="1043" type="curve" smooth="yes"/>
      <point x="273" y="1043"/>
      <point x="116" y="885"/>
      <point x="116" y="690" type="curve" smooth="yes"/>
      <point x="116" y="495"/>
      <point x="264" y="342"/>
    </contour>
  </outline>
</glyph>
<glyph name="perthousand" format="1">
  <advance width="3309"/>
  <unicode hex="2030"/>
  <outline>
    <contour>
      <point x="2816" y="163" type="curve" smooth="yes"/>
      <point x="2704" y="163"/>
      <point x="2617" y="260"/>
      <point x="2617" y="382" type="curve" smooth="yes"/>
      <point x="2617" y="503"/>
      <point x="2704" y="597"/>
      <point x="2816" y="597" type="curve" smooth="yes"/>
      <point x="2925" y="597"/>
      <point x="3009" y="507"/>
      <point x="3009" y="382" type="curve" smooth="yes"/>
      <point x="3009" y="261"/>
      <point x="2926" y="163"/>
    </contour>
    <contour>
      <point x="2811" y="-41" type="curve" smooth="yes"/>
      <point x="3062" y="-41"/>
      <point x="3245" y="143"/>
      <point x="3245" y="379" type="curve" smooth="yes"/>
      <point x="3245" y="616"/>
      <point x="3065" y="790"/>
      <point x="2811" y="790" type="curve" smooth="yes"/>
      <point x="2561" y="790"/>
      <point x="2379" y="611"/>
      <point x="2379" y="379" type="curve" smooth="yes"/>
      <point x="2379" y="143"/>
      <point x="2557" y="-41"/>
    </contour>
    <component base="percent" xOffset="52"/>
  </outline>
</glyph>
<glyph name="guilsinglleft" format="1">
  <advance width="949"/>
  <unicode hex="2039"/>
  <outline>
    <contour>
      <point x="490" y="173" type="line"/>
      <point x="697" y="173" type="line"/>
      <point x="440" y="598" type="line"/>
      <point x="701" y="1043" type="line"/>
      <point x="498" y="1043" type="line"/>
      <point x="220" y="601" type="line"/>
    </contour>
  </outline>
</glyph>
<glyph name="fraction" format="1">
  <advance width="1193"/>
  <unicode hex="2044"/>
  <outline>
    <contour>
      <point x="37" y="0" type="line"/>
      <point x="261" y="0" type="line"/>
      <point x="1328" y="1584" type="line"/>
      <point x="1119" y="1584" type="line"/>
    </contour>
  </outline>
</glyph>
<glyph name="foursuperior" format="1">
  <advance width="686"/>
  <unicode hex="2074"/>
  <outline>
    <contour>
      <point x="340" y="578" type="line"/>
      <point x="519" y="578" type="line"/>
      <point x="519" y="754" type="line"/>
      <point x="612" y="754" type="line"/>
      <point x="631" y="906" type="line"/>
      <point x="518" y="906" type="line"/>
      <point x="518" y="1456" type="line"/>
      <point x="330" y="1456" type="line"/>
      <point x="-21" y="914" type="line"/>
      <point x="-21" y="754" type="line"/>
      <point x="340" y="754" type="line"/>
    </contour>
    <contour>
      <point x="177" y="906" type="line"/>
      <point x="341" y="1216" type="line"/>
      <point x="341" y="906" type="line"/>
    </contour>
  </outline>
</glyph>
<glyph name="Euro" format="1">
  <advance width="1391"/>
  <unicode hex="20AC"/>
  <outline>
    <contour>
      <point x="-93" y="526" type="line"/>
      <point x="804" y="526" type="line"/>
      <point x="801" y="683" type="line"/>
      <point x="268" y="683" type="line"/>
      <point x="268" y="800" type="line"/>
      <point x="801" y="800" type="line"/>
      <point x="801" y="958" type="line"/>
      <point x="-95" y="958" type="line"/>
      <point x="-94" y="800" type="line"/>
      <point x="83" y="800" type="line"/>
      <point x="83" y="683" type="line"/>
      <point x="-96" y="683" type="line"/>
    </contour>
    <component base="C" xOffset="-34"/>
  </outline>
</glyph>
<glyph name="trademark" format="1">
  <advance width="2023"/>
  <unicode hex="2122"/>
  <outline>
    <contour>
      <point x="856" y="610" type="line"/>
      <point x="1054" y="610" type="line"/>
      <point x="1054" y="1099" type="line"/>
      <point x="1286" y="610" type="line"/>
      <point x="1382" y="610" type="line"/>
      <point x="1615" y="1099" type="line"/>
      <point x="1615" y="610" type="line"/>
      <point x="1812" y="610" type="line"/>
      <point x="1812" y="1456" type="line"/>
      <point x="1604" y="1456" type="line"/>
      <point x="1334" y="930" type="line"/>
      <point x="1064" y="1456" type="line"/>
      <point x="856" y="1456" type="line"/>
    </contour>
    <contour>
      <point x="317" y="610" type="line"/>
      <point x="515" y="610" type="line"/>
      <point x="515" y="1274" type="line"/>
      <point x="746" y="1274" type="line"/>
      <point x="746" y="1456" type="line"/>
      <point x="86" y="1456" type="line"/>
      <point x="86" y="1274" type="line"/>
      <point x="317" y="1274" type="line"/>
    </contour>
  </outline>
</glyph>
<glyph name="estimated" format="1">
  <advance width="1158"/>
  <unicode hex="212E"/>
  <outline>
    <contour>
      <point x="65" y="526" type="curve" smooth="yes"/>
      <point x="65" y="215"/>
      <point x="249" y="-20"/>
      <point x="619" y="-20" type="curve" smooth="yes"/>
      <point x="822" y="-20"/>
      <point x="953" y="66"/>
      <point x="1051" y="184" type="curve"/>
      <point x="1001" y="233" type="line"/>
      <point x="905" y="130"/>
      <point x="797" y="53"/>
      <point x="619" y="53" type="curve" smooth="yes"/>
      <point x="396" y="53"/>
      <point x="328" y="237"/>
      <point x="327" y="506" type="curve"/>
      <point x="1059" y="506" type="line"/>
      <point x="1059" y="844"/>
      <point x="915" y="1068"/>
      <point x="603" y="1068" type="curve" smooth="yes"/>
      <point x="289" y="1068"/>
      <point x="65" y="838"/>
    </contour>
    <contour>
      <point x="899" y="586" type="curve"/>
      <point x="327" y="586" type="line"/>
      <point x="344" y="840"/>
      <point x="441" y="1008"/>
      <point x="609" y="1008" type="curve" smooth="yes"/>
      <point x="814" y="1008"/>
      <point x="899" y="815"/>
    </contour>
  </outline>
</glyph>
<glyph name="uni2206" format="1">
  <advance width="1337"/>
  <unicode hex="2206"/>
  <outline>
    <contour>
      <point x="576" y="1594" type="line"/>
      <point x="73" y="89" type="line"/>
      <point x="73" y="0" type="line"/>
      <point x="1271" y="0" type="line"/>
      <point x="1271" y="89" type="line"/>
      <point x="769" y="1594" type="line"/>
    </contour>
    <contour>
      <point x="703" y="1234" type="line"/>
      <point x="1066" y="179" type="line"/>
      <point x="278" y="179" type="line"/>
      <point x="634" y="1234" type="line"/>
      <point x="669" y="1358" type="line"/>
    </contour>
  </outline>
</glyph>
<glyph name="product" format="1">
  <advance width="1594"/>
  <unicode hex="220F"/>
  <outline>
    <contour>
      <point x="208" y="1542" type="line"/>
      <point x="208" y="0" type="line"/>
      <point x="388" y="0" type="line"/>
      <point x="388" y="1377" type="line"/>
      <point x="1214" y="1377" type="line"/>
      <point x="1214" y="0" type="line"/>
      <point x="1395" y="0" type="line"/>
      <point x="1395" y="1542" type="line"/>
    </contour>
  </outline>
</glyph>
<glyph name="summation" format="1">
  <advance width="1213"/>
  <unicode hex="2211"/>
  <outline>
    <contour>
      <point x="71" y="1456" type="line"/>
      <point x="71" y="1218" type="line"/>
      <point x="562" y="572" type="line"/>
      <point x="67" y="-48" type="line"/>
      <point x="67" y="-281" type="line"/>
      <point x="1148" y="-281" type="line"/>
      <point x="1148" y="0" type="line"/>
      <point x="448" y="0" type="line"/>
      <point x="942" y="592" type="line"/>
      <point x="518" y="1179" type="line"/>
      <point x="1116" y="1179" type="line"/>
      <point x="1116" y="1456" type="line"/>
    </contour>
  </outline>
</glyph>
<glyph name="minus" format="1">
  <advance width="1223"/>
  <unicode hex="2212"/>
  <outline>
    <contour>
      <point x="92" y="666" type="line"/>
      <point x="92" y="450" type="line"/>
      <point x="1143" y="450" type="line"/>
      <point x="1143" y="666" type="line"/>
    </contour>
  </outline>
</glyph>
<glyph name="radical" format="1">
  <advance width="1195"/>
  <unicode hex="221A"/>
  <outline>
    <contour>
      <point x="1055" y="1577" type="line"/>
      <point x="613" y="110" type="line"/>
      <point x="553" y="320" type="line"/>
      <point x="358" y="951" type="line"/>
      <point x="42" y="864" type="line"/>
      <point x="59" y="739" type="line"/>
      <point x="264" y="800" type="line"/>
      <point x="583" y="-168" type="line"/>
      <point x="724" y="-168" type="line"/>
      <point x="1250" y="1577" type="line"/>
    </contour>
  </outline>
</glyph>
<glyph name="infinity" format="1">
  <advance width="1796"/>
  <unicode hex="221E"/>
  <outline>
    <contour>
      <point x="906" y="766" type="curve"/>
      <point x="782" y="934"/>
      <point x="652" y="1047"/>
      <point x="479" y="1047" type="curve" smooth="yes"/>
      <point x="279" y="1047"/>
      <point x="119" y="882"/>
      <point x="119" y="677" type="curve" smooth="yes"/>
      <point x="119" y="451"/>
      <point x="254" y="257"/>
      <point x="483" y="257" type="curve" smooth="yes"/>
      <point x="652" y="257"/>
      <point x="785" y="373"/>
      <point x="906" y="537" type="curve"/>
      <point x="1045" y="349"/>
      <point x="1171" y="257"/>
      <point x="1326" y="257" type="curve" smooth="yes"/>
      <point x="1528" y="257"/>
      <point x="1686" y="423"/>
      <point x="1686" y="659" type="curve" smooth="yes"/>
      <point x="1686" y="883"/>
      <point x="1557" y="1047"/>
      <point x="1328" y="1047" type="curve" smooth="yes"/>
      <point x="1151" y="1047"/>
      <point x="1022" y="929"/>
    </contour>
    <contour>
      <point x="744" y="654" type="curve"/>
      <point x="664" y="546"/>
      <point x="576" y="473"/>
      <point x="485" y="473" type="curve" smooth="yes"/>
      <point x="379" y="473"/>
      <point x="306" y="565"/>
      <point x="306" y="654" type="curve" smooth="yes"/>
      <point x="306" y="752"/>
      <point x="372" y="834"/>
      <point x="478" y="834" type="curve" smooth="yes"/>
      <point x="580" y="834"/>
      <point x="665" y="766"/>
    </contour>
    <contour>
      <point x="1491" y="682" type="curve" smooth="yes"/>
      <point x="1491" y="554"/>
      <point x="1440" y="473"/>
      <point x="1328" y="473" type="curve" smooth="yes"/>
      <point x="1239" y="473"/>
      <point x="1169" y="530"/>
      <point x="1073" y="656" type="curve"/>
      <point x="1149" y="759"/>
      <point x="1231" y="834"/>
      <point x="1324" y="834" type="curve" smooth="yes"/>
      <point x="1423" y="834"/>
      <point x="1491" y="762"/>
    </contour>
  </outline>
</glyph>
<glyph name="integral" format="1">
  <advance width="717"/>
  <unicode hex="222B"/>
  <outline>
    <contour>
      <point x="178" y="1191" type="curve" smooth="yes"/>
      <point x="178" y="-44" type="line" smooth="yes"/>
      <point x="178" y="-227"/>
      <point x="92" y="-223"/>
      <point x="34" y="-223" type="curve" smooth="yes"/>
      <point x="5" y="-223"/>
      <point x="-28" y="-216"/>
      <point x="-64" y="-211" type="curve"/>
      <point x="-64" y="-484" type="line"/>
      <point x="9" y="-504"/>
      <point x="71" y="-512"/>
      <point x="123" y="-512" type="curve" smooth="yes"/>
      <point x="359" y="-512"/>
      <point x="491" y="-324"/>
      <point x="491" y="-36" type="curve" smooth="yes"/>
      <point x="491" y="1200" type="line" smooth="yes"/>
      <point x="491" y="1360"/>
      <point x="522" y="1417"/>
      <point x="632" y="1417" type="curve" smooth="yes"/>
      <point x="653" y="1417"/>
      <point x="679" y="1414"/>
      <point x="706" y="1411" type="curve"/>
      <point x="706" y="1622" type="line"/>
      <point x="631" y="1640"/>
      <point x="569" y="1651"/>
      <point x="514" y="1651" type="curve" smooth="yes"/>
      <point x="288" y="1651"/>
      <point x="178" y="1474"/>
    </contour>
  </outline>
</glyph>
<glyph name="approxequal" format="1">
  <advance width="1314"/>
  <unicode hex="2248"/>
  <outline>
    <contour>
      <point x="852" y="786" type="curve" smooth="yes"/>
      <point x="796" y="786"/>
      <point x="753" y="809"/>
      <point x="687" y="856" type="curve"/>
      <point x="627" y="897"/>
      <point x="507" y="954"/>
      <point x="407" y="954" type="curve" smooth="yes"/>
      <point x="225" y="954"/>
      <point x="124" y="837"/>
      <point x="94" y="653" type="curve"/>
      <point x="263" y="584" type="line"/>
      <point x="281" y="685"/>
      <point x="306" y="746"/>
      <point x="404" y="746" type="curve" smooth="yes"/>
      <point x="459" y="746"/>
      <point x="492" y="728"/>
      <point x="515" y="698" type="curve" smooth="yes"/>
      <point x="644" y="617"/>
      <point x="724" y="579"/>
      <point x="833" y="579" type="curve" smooth="yes"/>
      <point x="1036" y="579"/>
      <point x="1161" y="721"/>
      <point x="1187" y="875" type="curve"/>
      <point x="1037" y="943" type="line"/>
      <point x="962" y="815"/>
      <point x="930" y="786"/>
    </contour>
    <contour>
      <point x="850" y="183" type="curve" smooth="yes"/>
      <point x="800" y="183"/>
      <point x="763" y="193"/>
      <point x="687" y="247" type="curve"/>
      <point x="619" y="294"/>
      <point x="505" y="347"/>
      <point x="409" y="347" type="curve" smooth="yes"/>
      <point x="227" y="347"/>
      <point x="124" y="230"/>
      <point x="91" y="48" type="curve"/>
      <point x="263" y="-17" type="line"/>
      <point x="279" y="84"/>
      <point x="301" y="141"/>
      <point x="402" y="141" type="curve" smooth="yes"/>
      <point x="457" y="141"/>
      <point x="490" y="125"/>
      <point x="513" y="95" type="curve" smooth="yes"/>
      <point x="642" y="12"/>
      <point x="720" y="-24"/>
      <point x="833" y="-24" type="curve" smooth="yes"/>
      <point x="1032" y="-24"/>
      <point x="1159" y="114"/>
      <point x="1185" y="268" type="curve"/>
      <point x="1037" y="336" type="line"/>
      <point x="957" y="210"/>
      <point x="928" y="183"/>
    </contour>
  </outline>
</glyph>
<glyph name="notequal" format="1">
  <advance width="1199"/>
  <unicode hex="2260"/>
  <outline>
    <contour>
      <point x="397" y="40" type="line"/>
      <point x="530" y="311" type="line"/>
      <point x="1091" y="311" type="line"/>
      <point x="1076" y="512" type="line"/>
      <point x="623" y="512" type="line"/>
      <point x="720" y="708" type="line"/>
      <point x="1091" y="708" type="line"/>
      <point x="1075" y="924" type="line"/>
      <point x="813" y="924" type="line"/>
      <point x="927" y="1149" type="line"/>
      <point x="732" y="1177" type="line"/>
      <point x="600" y="924" type="line"/>
      <point x="54" y="924" type="line"/>
      <point x="70" y="710" type="line"/>
      <point x="511" y="710" type="line"/>
      <point x="414" y="513" type="line"/>
      <point x="58" y="513" type="line"/>
      <point x="70" y="311" type="line"/>
      <point x="322" y="311" type="line"/>
      <point x="203" y="71" type="line"/>
    </contour>
  </outline>
</glyph>
<glyph name="lessequal" format="1">
  <advance width="1192"/>
  <unicode hex="2264"/>
  <outline>
    <contour>
      <point x="1051" y="333" type="line"/>
      <point x="1051" y="570" type="line"/>
      <point x="416" y="817" type="line"/>
      <point x="1055" y="1070" type="line"/>
      <point x="1055" y="1301" type="line"/>
      <point x="130" y="884" type="line"/>
      <point x="130" y="745" type="line"/>
    </contour>
    <contour>
      <point x="111" y="-7" type="line"/>
      <point x="1052" y="-7" type="line"/>
      <point x="1052" y="173" type="line"/>
      <point x="111" y="172" type="line"/>
    </contour>
  </outline>
</glyph>
<glyph name="greaterequal" format="1">
  <advance width="1192"/>
  <unicode hex="2265"/>
  <outline>
    <contour>
      <point x="141" y="213" type="line"/>
      <point x="1068" y="687" type="line"/>
      <point x="1068" y="821" type="line"/>
      <point x="141" y="1303" type="line"/>
      <point x="141" y="1072" type="line"/>
      <point x="828" y="754" type="line"/>
      <point x="141" y="451" type="line"/>
    </contour>
    <contour>
      <point x="138" y="2" type="line"/>
      <point x="1070" y="2" type="line"/>
      <point x="1070" y="184" type="line"/>
      <point x="138" y="185" type="line"/>
    </contour>
  </outline>
</glyph>
<glyph name="lozenge" format="1">
  <advance width="1223"/>
  <unicode hex="25CA"/>
  <outline>
    <contour>
      <point x="541" y="1516" type="line"/>
      <point x="93" y="733" type="line"/>
      <point x="534" y="-45" type="line"/>
      <point x="674" y="-45" type="line"/>
      <point x="1128" y="733" type="line"/>
      <point x="684" y="1516" type="line"/>
    </contour>
    <contour>
      <point x="938" y="736" type="curve"/>
      <point x="713" y="313"/>
      <point x="823" y="584"/>
      <point x="597" y="160" type="curve"/>
      <point x="374" y="580"/>
      <point x="501" y="313"/>
      <point x="283" y="735" type="curve"/>
      <point x="507" y="1157"/>
      <point x="386" y="891"/>
      <point x="613" y="1311" type="curve"/>
      <point x="829" y="887"/>
      <point x="720" y="1155"/>
    </contour>
  </outline>
</glyph>
<glyph name="caron.alt" format="1">
  <advance width="600"/>
  <outline>
    <contour>
      <point x="329" y="903" type="line"/>
      <point x="534" y="903" type="line"/>
      <point x="600" y="1560" type="line"/>
      <point x="331" y="1560" type="line"/>
    </contour>
    <contour>
      <point x="1" y="1082" type="move" name="_caron.alt"/>
    </contour>
  </outline>
</glyph>
<glyph name="commaaccent" format="1">
  <advance width="624"/>
  <outline>
    <contour>
      <point x="119" y="-570" type="curve"/>
      <point x="349" y="-570" type="line"/>
      <point x="496" y="-78" type="line"/>
      <point x="207" y="-78" type="line"/>
      <point x="207" y="-78"/>
      <point x="119" y="-570"/>
    </contour>
    <contour>
      <point x="348" y="0" type="move" name="_bot"/>
    </contour>
  </outline>
</glyph>
<glyph name="five.001" format="1">
  <advance width="1390"/>
  <outline>
    <contour>
      <point x="332" y="407" type="line"/>
      <point x="146" y="210" type="line"/>
      <point x="258" y="51"/>
      <point x="440" y="-20"/>
      <point x="718" y="-20" type="curve"/>
      <point x="1063" y="-20"/>
      <point x="1257" y="207"/>
      <point x="1257" y="486" type="curve"/>
      <point x="1257" y="714"/>
      <point x="1127" y="960"/>
      <point x="784" y="960" type="curve"/>
      <point x="658" y="960"/>
      <point x="556" y="924"/>
      <point x="491" y="857" type="curve"/>
      <point x="520" y="832" type="line"/>
      <point x="572" y="1206" type="line"/>
      <point x="1143" y="1206" type="line"/>
      <point x="1179" y="1456" type="line"/>
      <point x="272" y="1456" type="line"/>
      <point x="204" y="638" type="line"/>
      <point x="487" y="593" type="line"/>
      <point x="506" y="676"/>
      <point x="583" y="715"/>
      <point x="704" y="715" type="curve"/>
      <point x="824" y="715"/>
      <point x="894" y="615"/>
      <point x="896" y="512" type="curve"/>
      <point x="898" y="350"/>
      <point x="834" y="260"/>
      <point x="681" y="260" type="curve"/>
      <point x="580" y="260"/>
      <point x="418" y="297"/>
      <point x="354" y="407" type="curve"/>
    </contour>
  </outline>
</glyph>
<glyph name="middot" format="1">
  <advance width="650"/>
  <outline>
    <component base="period" xOffset="-55" yOffset="507"/>
    <contour>
      <point x="303" y="680" type="move" name="_mid"/>
    </contour>
  </outline>
</glyph>
<glyph name="onesuperior" format="1">
  <advance width="854"/>
  <outline>
    <contour>
      <point x="233" y="547" type="line"/>
      <point x="713" y="547" type="line"/>
      <point x="713" y="726" type="line"/>
      <point x="578" y="726" type="line"/>
      <point x="578" y="1456" type="line"/>
      <point x="415" y="1456" type="line"/>
      <point x="390" y="1445"/>
      <point x="263" y="1367"/>
      <point x="215" y="1339" type="curve"/>
      <point x="215" y="1160" type="line"/>
      <point x="209" y="1157"/>
      <point x="325" y="1219"/>
      <point x="362" y="1236" type="curve"/>
      <point x="362" y="726" type="line"/>
      <point x="233" y="726" type="line"/>
    </contour>
  </outline>
</glyph>
<glyph name="slashbar" format="1">
  <advance width="261"/>
  <outline>
    <contour>
      <point x="136" y="442" type="line"/>
      <point x="822" y="659" type="line"/>
      <point x="822" y="914" type="line"/>
      <point x="136" y="696" type="line"/>
    </contour>
    <contour>
      <point x="406" y="654" type="move" name="_mid"/>
    </contour>
  </outline>
</glyph>
<glyph name="threesuperior" format="1">
  <advance width="884"/>
  <outline>
    <contour>
      <point x="430" y="573" type="curve" smooth="yes"/>
      <point x="617" y="573"/>
      <point x="782" y="662"/>
      <point x="782" y="849" type="curve" smooth="yes"/>
      <point x="782" y="944"/>
      <point x="729" y="1039"/>
      <point x="628" y="1058" type="curve"/>
      <point x="733" y="1077"/>
      <point x="762" y="1164"/>
      <point x="764" y="1242" type="curve" smooth="yes"/>
      <point x="764" y="1410"/>
      <point x="629" y="1473"/>
      <point x="475" y="1473" type="curve" smooth="yes"/>
      <point x="363" y="1473"/>
      <point x="244" y="1441"/>
      <point x="155" y="1388" type="curve"/>
      <point x="215" y="1260" type="line"/>
      <point x="288" y="1300"/>
      <point x="370" y="1321"/>
      <point x="436" y="1321" type="curve" smooth="yes"/>
      <point x="519" y="1321"/>
      <point x="582" y="1291"/>
      <point x="582" y="1219" type="curve" smooth="yes"/>
      <point x="582" y="1162"/>
      <point x="571" y="1127"/>
      <point x="435" y="1127" type="curve" smooth="yes"/>
      <point x="311" y="1127" type="line"/>
      <point x="311" y="978" type="line"/>
      <point x="432" y="980" type="line" smooth="yes"/>
      <point x="557" y="982"/>
      <point x="603" y="931"/>
      <point x="603" y="858" type="curve" smooth="yes"/>
      <point x="603" y="766"/>
      <point x="518" y="727"/>
      <point x="422" y="727" type="curve" smooth="yes"/>
      <point x="346" y="727"/>
      <point x="263" y="753"/>
      <point x="208" y="795" type="curve"/>
      <point x="144" y="644" type="line"/>
      <point x="231" y="597"/>
      <point x="333" y="573"/>
    </contour>
  </outline>
</glyph>
